<svg width="24" height="24" viewBox="0 0 24 24" fill="none" xmlns="http://www.w3.org/2000/svg">
<path fill-rule="evenodd" clip-rule="evenodd" d="M6 18C5.17157 18 4.5 18.6716 4.5 19.5C4.5 20.3284 5.17157 21 6 21C6.82843 21 7.5 20.3284 7.5 19.5C7.5 18.6716 6.82843 18 6 18ZM3 19.5C3 17.8431 4.34315 16.5 6 16.5C7.65685 16.5 9 17.8431 9 19.5C9 21.1569 7.65685 22.5 6 22.5C4.34315 22.5 3 21.1569 3 19.5Z" fill="#21272A"/>
<path fill-rule="evenodd" clip-rule="evenodd" d="M6 6C6.41421 6 6.75 6.33579 6.75 6.75V17.25C6.75 17.6642 6.41421 18 6 18C5.58579 18 5.25 17.6642 5.25 17.25V6.75C5.25 6.33579 5.58579 6 6 6Z" fill="#21272A"/>
<path fill-rule="evenodd" clip-rule="evenodd" d="M14.0303 0.96967C14.3232 1.26256 14.3232 1.73744 14.0303 2.03033L11.5607 4.5L14.0303 6.96967C14.3232 7.26256 14.3232 7.73744 14.0303 8.03033C13.7374 8.32322 13.2626 8.32322 12.9697 8.03033L9.96967 5.03033C9.67678 4.73744 9.67678 4.26256 9.96967 3.96967L12.9697 0.96967C13.2626 0.676777 13.7374 0.676777 14.0303 0.96967Z" fill="#21272A"/>
<path fill-rule="evenodd" clip-rule="evenodd" d="M6 3C5.17157 3 4.5 3.67157 4.5 4.5C4.5 5.32843 5.17157 6 6 6C6.82843 6 7.5 5.32843 7.5 4.5C7.5 3.67157 6.82843 3 6 3ZM3 4.5C3 2.84315 4.34315 1.5 6 1.5C7.65685 1.5 9 2.84315 9 4.5C9 6.15685 7.65685 7.5 6 7.5C4.34315 7.5 3 6.15685 3 4.5Z" fill="#21272A"/>
<path fill-rule="evenodd" clip-rule="evenodd" d="M18 18C17.1716 18 16.5 18.6716 16.5 19.5C16.5 20.3284 17.1716 21 18 21C18.8284 21 19.5 20.3284 19.5 19.5C19.5 18.6716 18.8284 18 18 18ZM15 19.5C15 17.8431 16.3431 16.5 18 16.5C19.6569 16.5 21 17.8431 21 19.5C21 21.1569 19.6569 22.5 18 22.5C16.3431 22.5 15 21.1569 15 19.5Z" fill="#21272A"/>
<path fill-rule="evenodd" clip-rule="evenodd" d="M10.5 4.5C10.5 4.08579 10.8358 3.75 11.25 3.75H15.1875C16.1323 3.75 17.0385 4.12533 17.7066 4.79343C18.3747 5.46153 18.75 6.36767 18.75 7.3125V17.25C18.75 17.6642 18.4142 18 18 18C17.5858 18 17.25 17.6642 17.25 17.25V7.3125C17.25 6.76549 17.0327 6.24089 16.6459 5.85409C16.2591 5.4673 15.7345 5.25 15.1875 5.25H11.25C10.8358 5.25 10.5 4.91421 10.5 4.5Z" fill="#21272A"/>
</svg>
