<svg width="19" height="25" viewBox="0 0 19 25" fill="none" xmlns="http://www.w3.org/2000/svg">
<path d="M4 2.5C3.64638 2.5 3.30724 2.6317 3.05719 2.86612C2.80714 3.10054 2.66667 3.41848 2.66667 3.75V22.5L6.63733 19.1037C7.37425 18.4734 8.33579 18.124 9.33333 18.124C10.3309 18.124 11.2924 18.4734 12.0293 19.1037L16 22.5V3.75C16 3.41848 15.8595 3.10054 15.6095 2.86612C15.3594 2.6317 15.0203 2.5 14.6667 2.5H4ZM4 0H14.6667C15.7275 0 16.7449 0.395088 17.4951 1.09835C18.2452 1.80161 18.6667 2.75544 18.6667 3.75V22.5C18.6665 22.9847 18.5162 23.4588 18.2338 23.8648C17.9515 24.2708 17.5493 24.5911 17.0763 24.7867C16.6033 24.9824 16.0799 25.0449 15.5697 24.9667C15.0595 24.8885 14.5846 24.6729 14.2027 24.3462L10.232 20.95C9.98636 20.7399 9.66585 20.6234 9.33333 20.6234C9.00082 20.6234 8.6803 20.7399 8.43467 20.95L4.464 24.3462C4.0821 24.6729 3.60715 24.8885 3.09695 24.9667C2.58676 25.0449 2.06332 24.9824 1.59033 24.7867C1.11734 24.5911 0.715203 24.2708 0.432854 23.8648C0.150505 23.4588 0.000119586 22.9847 0 22.5L0 3.75C0 2.75544 0.421427 1.80161 1.17157 1.09835C1.92172 0.395088 2.93913 0 4 0V0ZM5.33333 10H13.3333C13.687 10 14.0261 10.1317 14.2761 10.3661C14.5262 10.6005 14.6667 10.9185 14.6667 11.25C14.6667 11.5815 14.5262 11.8995 14.2761 12.1339C14.0261 12.3683 13.687 12.5 13.3333 12.5H5.33333C4.97971 12.5 4.64057 12.3683 4.39052 12.1339C4.14048 11.8995 4 11.5815 4 11.25C4 10.9185 4.14048 10.6005 4.39052 10.3661C4.64057 10.1317 4.97971 10 5.33333 10V10Z" fill="#DDE1E6"/>
</svg>
