<svg width="36" height="36" viewBox="0 0 36 36" fill="none" xmlns="http://www.w3.org/2000/svg">
<path d="M25.5 13.5V10.5C25.5 8.84315 24.1569 7.5 22.5 7.5H7.5C5.84315 7.5 4.5 8.84315 4.5 10.5V19.5C4.5 21.1569 5.84315 22.5 7.5 22.5H10.5M13.5 28.5H28.5C30.1569 28.5 31.5 27.1569 31.5 25.5V16.5C31.5 14.8431 30.1569 13.5 28.5 13.5H13.5C11.8431 13.5 10.5 14.8431 10.5 16.5V25.5C10.5 27.1569 11.8431 28.5 13.5 28.5ZM24 21C24 22.6569 22.6569 24 21 24C19.3431 24 18 22.6569 18 21C18 19.3431 19.3431 18 21 18C22.6569 18 24 19.3431 24 21Z" stroke="#21272A" stroke-width="2" stroke-linecap="round" stroke-linejoin="round"/>
</svg>
