
<svg width="24" height="24" viewBox="0 0 24 24"
fill="#457589" stroke="#457589" stroke-width="1"
xmlns="http://www.w3.org/2000/svg">

<path
    fill="#457589"
    stroke="#457589"
    stroke-width="2"
    fill-rule="evenodd"
    clip-rule="evenodd"
    d="M11.9921 3C6.99416 3 2.98499 6.95015 3.00004 11.7792L3.00005 11.7804V11.7816C2.99999 13.4614 3.49098 15.1045 4.4124 16.5087C4.46503 16.5806 4.51426 16.655 4.55994 16.7315L4.56356 16.7375L4.56708 16.7437C4.64102 16.873 4.72871 17.0473 4.78914 17.2397C4.84444 17.4157 4.90814 17.7028 4.8249 18.0091L4.82447 18.0107L4.04982 20.8128L6.72864 19.846C6.99497 19.7365 7.28037 19.6805 7.56849 19.6814C7.56897 19.6814 7.56945 19.6814 7.56993 19.6814L7.56708 20.4314L7.56792 19.6814C7.56811 19.6814 7.5683 19.6814 7.56849 19.6814C7.83823 19.6818 8.10563 19.7316 8.35742 19.8284L8.35796 19.8286L8.35851 19.8288C8.51054 19.8875 9.11615 20.1125 9.715 20.2801C10.3037 20.4449 11.3908 20.6447 12.1599 20.6447C17.1329 20.6447 20.9999 16.6518 21 11.7889L21.75 11.7886H21C20.9998 11.1853 20.936 10.5838 20.8095 9.99391L20.8093 9.99313L20.8092 9.99234C19.9657 6.01596 16.3474 3 11.9921 3Z"
/>

</svg>
