<svg width="24" height="24" viewBox="0 0 24 24" fill="none" xmlns="http://www.w3.org/2000/svg">
<path fill-rule="evenodd" clip-rule="evenodd" d="M7.5 2.25C7.5 1.83579 7.83579 1.5 8.25 1.5H15.75C16.1642 1.5 16.5 1.83579 16.5 2.25C16.5 2.66421 16.1642 3 15.75 3H8.25C7.83579 3 7.5 2.66421 7.5 2.25Z" fill="#21272A"/>
<path fill-rule="evenodd" clip-rule="evenodd" d="M4.78125 14.25C4.78125 13.8358 5.11704 13.5 5.53125 13.5H18.4688C18.883 13.5 19.2188 13.8358 19.2188 14.25C19.2188 14.6642 18.883 15 18.4688 15H5.53125C5.11704 15 4.78125 14.6642 4.78125 14.25Z" fill="#21272A"/>
<path fill-rule="evenodd" clip-rule="evenodd" d="M9.74998 1.5C10.1642 1.5 10.5 1.83579 10.5 2.25V6.63197C10.4999 7.3406 10.2992 8.03474 9.92123 8.63414L4.06586 17.9078C3.2181 19.2503 4.18293 21 5.76935 21H18.2306C19.817 21 20.7819 19.2503 19.9341 17.9078L14.0781 8.63395C13.7003 8.03452 13.4999 7.34042 13.5 6.63188C13.5 6.63184 13.5 6.63181 13.5 6.63178V2.25C13.5 1.83579 13.8358 1.5 14.25 1.5C14.6642 1.5 15 1.83579 15 2.25V6.63197C14.9999 7.05722 15.1202 7.47381 15.3468 7.83363C15.3469 7.83381 15.347 7.83399 15.3471 7.83417L21.2024 17.1069C22.6806 19.4478 20.9989 22.5 18.2306 22.5H5.76935C3.0011 22.5 1.31939 19.4478 2.79753 17.1069C2.79752 17.1069 2.79753 17.1069 2.79753 17.1069L8.65247 7.83399C8.87943 7.47411 8.99991 7.05734 8.99998 6.63188C8.99998 6.63184 8.99998 6.63181 8.99998 6.63178V2.25C8.99998 1.83579 9.33576 1.5 9.74998 1.5Z" fill="#21272A"/>
</svg>
