<svg width="24" height="24" viewBox="0 0 24 24" fill="#457589" xmlns="http://www.w3.org/2000/svg">
    <path
        d="M0.75 5.25C0.75 4.42157 1.42157 3.75 2.25 3.75H3.75C4.57843 3.75 5.25 4.42157 5.25 5.25V21C5.25 21.8284 4.57843 22.5 3.75 22.5H2.25C1.42157 22.5 0.75 21.8284 0.75 21V5.25ZM3.75 5.25H2.25V21H3.75V5.25Z"
        fill="#457589" stroke="#457589" stroke-width="1"/>
    <path
        d="M4.5 10.5C4.5 10.0858 4.83579 9.75 5.25 9.75H11.25C11.6642 9.75 12 10.0858 12 10.5C12 10.9142 11.6642 11.25 11.25 11.25H5.25C4.83579 11.25 4.5 10.9142 4.5 10.5Z"
        fill="#457589" stroke="#457589" stroke-width="1"/>
    <path
        d="M4.5 18.75C4.5 18.3358 4.83579 18 5.25 18H11.25C11.6642 18 12 18.3358 12 18.75C12 19.1642 11.6642 19.5 11.25 19.5H5.25C4.83579 19.5 4.5 19.1642 4.5 18.75Z"
        fill="#457589" stroke="#457589" stroke-width="1"/>
    <path
        d="M4.5 8.25C4.5 7.42157 5.17157 6.75 6 6.75H10.5C11.3284 6.75 12 7.42157 12 8.25V21C12 21.8284 11.3284 22.5 10.5 22.5H6C5.17157 22.5 4.5 21.8284 4.5 21V8.25ZM10.5 8.25H6V21H10.5V8.25Z"
        fill="#457589" />
    <path
        d="M11.25 3C11.25 2.17157 11.9216 1.5 12.75 1.5H15.75C16.5784 1.5 17.25 2.17157 17.25 3V21C17.25 21.8284 16.5784 22.5 15.75 22.5H12.75C11.9216 22.5 11.25 21.8284 11.25 21V3ZM15.75 3H12.75V21H15.75V3Z"
        fill="#457589" stroke="#457589" stroke-width="1"/>
    <path
        d="M19.7244 3.75916C20.6844 3.65816 21.5003 4.38378 21.6046 5.30621L21.605 5.30965L23.2396 20.3818C23.3399 21.3078 22.6928 22.1903 21.7319 22.2914L19.8382 22.4906L19.8375 22.4907C18.8803 22.5905 18.061 21.868 17.9599 20.9431L16.323 5.86791C16.2226 4.94197 16.8698 4.05948 17.8306 3.95838L19.7244 3.75916C19.7244 3.75916 19.7244 3.75916 19.7244 3.75916ZM20.114 5.47357C20.095 5.31127 19.9636 5.24227 19.8813 5.25093L17.9876 5.45015C17.9876 5.45015 17.9876 5.45015 17.9876 5.45015C17.9059 5.45874 17.7975 5.55121 17.8142 5.70612C17.8142 5.70616 17.8142 5.7062 17.8143 5.70624L19.4511 20.7801C19.4681 20.9359 19.5962 21.0074 19.6814 20.9988C19.6816 20.9988 19.6817 20.9988 19.6819 20.9988L21.575 20.7996C21.575 20.7996 21.575 20.7996 21.575 20.7996C21.6566 20.791 21.7651 20.6985 21.7483 20.5436C21.7483 20.5436 21.7483 20.5436 21.7483 20.5436L20.1142 5.47482C20.1141 5.4744 20.1141 5.47399 20.114 5.47357Z"
        fill="#457589" stroke="#457589" stroke-width="1"/>
</svg>


