<!--<svg width="30" height="24" viewBox="0 0 22 22" fill="#457589" xmlns="http://www.w3.org/2000/svg">-->
<!--    <path-->
<!--        stroke="#457589" stroke-width="1"-->
<!--        d="M10 0C10.36 0 10.72 0.1 11.03 0.28L19.03 5.08C19.57 5.4 20 6 20 6.8V17.67C20 18.19 19.79 18.7 19.41 19.08C19.03 19.46 18.53 19.67 18 19.67H12V14.92C12 14.39 11.79 13.88 11.41 13.5C11.03 13.13 10.53 12.92 10 12.92C9.47 12.92 8.96 13.13 8.59 13.5C8.21 13.88 8 14.39 8 14.92V19.67H2C1.47 19.67 0.96 19.46 0.59 19.08C0.21 18.7 0 18.19 0 17.67V6.8C0 6 0.43 5.4 0.97 5.08L8.97 0.28C9.28 0.1 9.64 0 10 0Z"/>-->
<!--</svg>-->
<!--&lt;!&ndash;<svg width="20" height="20" viewBox="0 0 20 20" fill="#457589" xmlns="http://www.w3.org/2000/svg">&ndash;&gt;-->
<!--&lt;!&ndash;    <path&ndash;&gt;-->
<!--&lt;!&ndash;        d="M10 2L2 6.8V17.668H6V14.918C6 13.8572 6.42143 12.8397 7.17157 12.0896C7.92172 11.3394 8.93913 10.918 10 10.918C11.0609 10.918 12.0783 11.3394 12.8284 12.0896C13.5786 12.8397 14 13.8572 14 14.918V17.668H18V6.8L10 2Z"&ndash;&gt;-->
<!--&lt;!&ndash;     stroke="#457589" stroke-width="3"/>&ndash;&gt;-->
<!--&lt;!&ndash;</svg>&ndash;&gt;-->


<svg width="24" height="24" viewBox="0 0 24 24" fill="#457589"
xmlns="http://www.w3.org/2000/svg">

<g transform="translate(1,1)">
    <path
        stroke="#457589"
        stroke-width="1"
        stroke-linejoin="round"
        d="M10 0C10.36 0 10.72 0.1 11.03 0.28L19.03 5.08C19.57 5.4 20 6 20 6.8V17.67C20 18.19 19.79 18.7 19.41 19.08C19.03 19.46 18.53 19.67 18 19.67H12V14.92C12 14.39 11.79 13.88 11.41 13.5C11.03 13.13 10.53 12.92 10 12.92C9.47 12.92 8.96 13.13 8.59 13.5C8.21 13.88 8 14.39 8 14.92V19.67H2C1.47 19.67 0.96 19.46 0.59 19.08C0.21 18.7 0 18.19 0 17.67V6.8C0 6 0.43 5.4 0.97 5.08L8.97 0.28C9.28 0.1 9.64 0 10 0Z"
    />
</g>

</svg>