<svg width="35" height="35" viewBox="0 0 35 35" fill="none" xmlns="http://www.w3.org/2000/svg">
<path fill-rule="evenodd" clip-rule="evenodd" d="M9.84375 3.28125C8.63563 3.28125 7.65625 4.26063 7.65625 5.46875V29.5312C7.65625 30.7394 8.63563 31.7188 9.84375 31.7188H25.1562C26.3644 31.7188 27.3438 30.7394 27.3438 29.5312V5.46875C27.3438 4.26063 26.3644 3.28125 25.1562 3.28125H9.84375ZM5.46875 5.46875C5.46875 3.0525 7.4275 1.09375 9.84375 1.09375H25.1562C27.5725 1.09375 29.5312 3.0525 29.5312 5.46875V29.5312C29.5312 31.9475 27.5725 33.9062 25.1562 33.9062H9.84375C7.4275 33.9062 5.46875 31.9475 5.46875 29.5312V5.46875Z" fill="#21272A"/>
<path fill-rule="evenodd" clip-rule="evenodd" d="M13.125 5.46875C13.125 4.86469 13.6147 4.375 14.2188 4.375H20.7812C21.3853 4.375 21.875 4.86469 21.875 5.46875C21.875 6.07281 21.3853 6.5625 20.7812 6.5625H14.2188C13.6147 6.5625 13.125 6.07281 13.125 5.46875Z" fill="#21272A"/>
<path d="M22.7964 19.4492C22.5385 19.1744 22.226 18.9564 21.879 18.8091C21.532 18.6619 21.1581 18.5886 20.7812 18.594C19.9882 18.594 19.2711 18.8955 18.7619 19.4437C18.2526 19.992 17.9962 20.7508 18.055 21.5629C18.1719 23.168 19.3949 24.4729 20.7812 24.4729C22.1675 24.4729 23.3884 23.168 23.5067 21.5642C23.5668 20.759 23.3139 20.0077 22.7964 19.4492Z" fill="#21272A"/>
<path d="M25.4085 30.625H16.1541C16.0336 30.6269 15.9142 30.6024 15.8042 30.5531C15.6942 30.5039 15.5964 30.4311 15.5176 30.3399C15.4322 30.2376 15.3709 30.1174 15.3383 29.9882C15.3056 29.859 15.3024 29.7241 15.329 29.5935C15.5511 28.3931 16.2436 27.3848 17.3319 26.6772C18.2985 26.049 19.5235 25.7031 20.7813 25.7031C22.0391 25.7031 23.2641 26.049 24.2307 26.6772C25.319 27.3848 26.0115 28.3931 26.2336 29.5935C26.2602 29.7241 26.257 29.859 26.2244 29.9882C26.1917 30.1174 26.1304 30.2376 26.045 30.3399C25.9662 30.4311 25.8684 30.5039 25.7584 30.5531C25.6484 30.6024 25.529 30.6269 25.4085 30.625Z" fill="#21272A"/>
</svg>
