<svg width="124" height="30" viewBox="0 0 124 30" fill="none" xmlns="http://www.w3.org/2000/svg">
    <path fill-rule="evenodd" clip-rule="evenodd" d="M0 3V27H24V3H0ZM3.41421 5L12 13.5858L20.5858 5H3.41421ZM22
        6.41421L13.4142 15L22 23.5858V6.41421ZM20.5858 25L12 16.4142L3.41421
        25H20.5858ZM2 23.5858L10.5858 15L2 6.41421V23.5858Z" fill="#4D5358" />
    <path d="M34.126 11.4385H30.8652V9.38184H34.126C34.6299 9.38184 35.04
        9.2998 35.3564 9.13574C35.6729 8.96582 35.9043 8.73145 36.0508
        8.43262C36.1973 8.13379 36.2705 7.79688 36.2705 7.42188C36.2705 7.04102
        36.1973 6.68652 36.0508 6.3584C35.9043 6.03027 35.6729 5.7666 35.3564
        5.56738C35.04 5.36816 34.6299 5.26855 34.126
        5.26855H31.7793V16H29.1426V3.20312H34.126C35.1279
        3.20312 35.9863 3.38477 36.7012 3.74805C37.4219
        4.10547 37.9727 4.60059 38.3535 5.2334C38.7344 5.86621
        38.9248 6.58984 38.9248 7.4043C38.9248 8.23047 38.7344 8.94531
        38.3535 9.54883C37.9727 10.1523 37.4219 10.6182 36.7012 10.9463C35.9863
        11.2744 35.1279 11.4385 34.126 11.4385ZM43.0557 2.5V16H40.5244V2.5H43.0557ZM42.6953
        10.9111H42.001C42.0068 10.249 42.0947 9.63965 42.2646 9.08301C42.4346 8.52051 42.6777
        8.03418 42.9941 7.62402C43.3105 7.20801 43.6885 6.88574 44.1279 6.65723C44.5732 6.42871
        45.0654 6.31445 45.6045 6.31445C46.0732 6.31445 46.498 6.38184 46.8789 6.5166C47.2656
         6.64551 47.5967 6.85645 47.8721 7.14941C48.1533 7.43652 48.3701 7.81445 48.5225
          8.2832C48.6748 8.75195 48.751 9.32031 48.751 9.98828V16H46.2021V9.9707C46.2021
           9.54883 46.1406 9.21777 46.0176 8.97754C45.9004 8.73145 45.7275 8.55859 45.499
            8.45898C45.2764 8.35352 45.001 8.30078 44.6729 8.30078C44.3096 8.30078 43.999
            8.36816 43.7412 8.50293C43.4893 8.6377 43.2871 8.8252 43.1348 9.06543C42.9824
            9.2998 42.8711 9.5752 42.8008 9.8916C42.7305 10.208 42.6953 10.5479 42.6953
            10.9111ZM55.8086 13.8555V9.61914C55.8086 9.31445 55.7588 9.05371 55.6592
             8.83691C55.5596 8.61426 55.4043 8.44141 55.1934 8.31836C54.9883 8.19531
             54.7217 8.13379 54.3936 8.13379C54.1123 8.13379 53.8691 8.18359 53.6641
             8.2832C53.459 8.37695 53.3008 8.51465 53.1895 8.69629C53.0781 8.87207
             53.0225 9.08008 53.0225 9.32031H50.4912C50.4912 8.91602 50.585 8.53223 50.7725
             8.16895C50.96 7.80566 51.2324 7.48633 51.5898 7.21094C51.9473 6.92969 52.3721
             6.70996 52.8643 6.55176C53.3623 6.39355 53.9189 6.31445 54.5342 6.31445C55.2725
             6.31445 55.9287 6.4375 56.5029 6.68359C57.0771 6.92969 57.5283 7.29883 57.8564
             7.79102C58.1904 8.2832 58.3574 8.89844 58.3574 9.63672V13.7061C58.3574 14.2275
             58.3896 14.6553 58.4541 14.9893C58.5186 15.3174 58.6123 15.6045 58.7354
             15.8506V16H56.1777C56.0547 15.7422 55.9609 15.4199 55.8965 15.0332C55.8379
             14.6406 55.8086 14.248 55.8086 13.8555ZM56.1426 10.208L56.1602 11.6406H54.7451C54.4111
              11.6406 54.1211 11.6787 53.875 11.7549C53.6289 11.8311 53.4268 11.9395 53.2686
               12.0801C53.1104 12.2148 52.9932 12.373 52.917 12.5547C52.8467 12.7363 52.8115
                12.9355 52.8115 13.1523C52.8115 13.3691 52.8613 13.5654 52.9609 13.7412C53.0605
                13.9111 53.2041 14.0459 53.3916 14.1455C53.5791 14.2393 53.7988 14.2861 54.0508
                14.2861C54.4316 14.2861 54.7627 14.21 55.0439 14.0576C55.3252 13.9053 55.542
                13.7178 55.6943 13.4951C55.8525 13.2725 55.9346 13.0615 55.9404 12.8623L56.6084
                13.9346C56.5146 14.1748 56.3857 14.4238 56.2217 14.6816C56.0635 14.9395 55.8613
                15.1826 55.6152 15.4111C55.3691 15.6338 55.0732 15.8184 54.7275 15.9648C54.3818
                16.1055 53.9717 16.1758 53.4971 16.1758C52.8936 16.1758 52.3457 16.0557 51.8535
                15.8154C51.3672 15.5693 50.9805 15.2324 50.6934 14.8047C50.4121 14.3711 50.2715
                 13.8789 50.2715 13.3281C50.2715 12.8301 50.3652 12.3877 50.5527 12.001C50.7402
                 11.6143 51.0156 11.2891 51.3789 11.0254C51.748 10.7559 52.208 10.5537 52.7588
                 10.4189C53.3096 10.2783 53.9482 10.208 54.6748 10.208H56.1426ZM62.8398
                 8.56445V16H60.3086V6.49023H62.6904L62.8398 8.56445ZM65.7051 6.42871L65.6611
                 8.77539C65.5381 8.75781 65.3887 8.74316 65.2129 8.73145C65.043 8.71387 64.8877
                  8.70508 64.7471 8.70508C64.3896 8.70508 64.0791 8.75195 63.8154 8.8457C63.5576
                  8.93359 63.3408 9.06543 63.165 9.24121C62.9951 9.41699 62.8662 9.63086 62.7783
                  9.88281C62.6963 10.1348 62.6494 10.4219 62.6377 10.7441L62.1279 10.5859C62.1279
                   9.9707 62.1895 9.40527 62.3125 8.88965C62.4355 8.36816 62.6143 7.91406 62.8486
                    7.52734C63.0889 7.14062 63.3818 6.8418 63.7275 6.63086C64.0732 6.41992 64.4688
                     6.31445 64.9141 6.31445C65.0547 6.31445 65.1982 6.32617 65.3447 6.34961C65.4912
                     6.36719 65.6113 6.39355 65.7051 6.42871ZM69.4316
                     8.45898V16H66.8916V6.49023H69.2734L69.4316
             8.45898ZM69.0801 10.9111H68.377C68.377 10.249 68.4561 9.63965 68.6143
             9.08301C68.7783 8.52051 69.0156 8.03418
             69.3262 7.62402C69.6426 7.20801 70.0322 6.88574 70.4951 6.65723C70.958
             6.42871 71.4941 6.31445 72.1035 6.31445C72.5254 6.31445 72.9121 6.37891
             73.2637 6.50781C73.6152 6.63086 73.917 6.82715 74.1689 7.09668C74.4268
              7.36035 74.626 7.70605 74.7666 8.13379C74.9072 8.55566 74.9775 9.0625
              74.9775 9.6543V16H72.4463V9.93555C72.4463 9.50195 72.3877 9.16797 72.2705
              8.93359C72.1533 8.69922 71.9863 8.53516 71.7695 8.44141C71.5586 8.34766
              71.3037 8.30078 71.0049 8.30078C70.6768 8.30078 70.3896 8.36816 70.1436
              8.50293C69.9033 8.6377 69.7041 8.8252 69.5459 9.06543C69.3877 9.2998
              69.2705 9.5752 69.1943 9.8916C69.1182 10.208 69.0801 10.5479 69.0801
              10.9111ZM74.7402 10.6211L73.835 10.7354C73.835 10.1143 73.9111 9.53711
              74.0635 9.00391C74.2217 8.4707 74.4531 8.00195 74.7578 7.59766C75.0684
             7.19336 75.4521 6.87988 75.9092 6.65723C76.3662 6.42871 76.8936 6.31445
              77.4912 6.31445C77.9482 6.31445 78.3643 6.38184 78.7393 6.5166C79.1143
              6.64551 79.4336 6.85352 79.6973 7.14062C79.9668 7.42188 80.1719 7.79102
              80.3125 8.24805C80.459 8.70508 80.5322 9.26465 80.5322 9.92676V16H77.9922V9.92676C77.9922
               9.4873 77.9336 9.15332 77.8164 8.9248C77.7051 8.69043 77.541 8.5293 77.3242 8.44141C77.1133
               8.34766 76.8613 8.30078 76.5684 8.30078C76.2637 8.30078 75.9971 8.3623 75.7686 8.48535C75.54
               8.60254 75.3496 8.7666 75.1973 8.97754C75.0449 9.18848 74.9307 9.43457 74.8545 9.71582C74.7783 9.99121 74.7402 10.293 74.7402 10.6211ZM87.625 13.8555V9.61914C87.625 9.31445 87.5752 9.05371 87.4756 8.83691C87.376 8.61426 87.2207 8.44141 87.0098 8.31836C86.8047 8.19531 86.5381 8.13379 86.21 8.13379C85.9287
              8.13379 85.6855 8.18359 85.4805 8.2832C85.2754 8.37695 85.1172 8.51465 85.0059 8.69629C84.8945 8.87207 84.8389 9.08008 84.8389 9.32031H82.3076C82.3076 8.91602 82.4014 8.53223 82.5889 8.16895C82.7764 7.80566 83.0488 7.48633 83.4062 7.21094C83.7637 6.92969 84.1885 6.70996 84.6807 6.55176C85.1787 6.39355 85.7354 6.31445 86.3506 6.31445C87.0889 6.31445 87.7451 6.4375 88.3193 6.68359C88.8936 6.92969 89.3447 7.29883 89.6729 7.79102C90.0068 8.2832 90.1738 8.89844 90.1738 9.63672V13.7061C90.1738 14.2275 90.2061 14.6553 90.2705 14.9893C90.335 15.3174 90.4287 15.6045 90.5518
              15.8506V16H87.9941C87.8711 15.7422 87.7773 15.4199 87.7129 15.0332C87.6543 14.6406 87.625 14.248 87.625 13.8555ZM87.959 10.208L87.9766 11.6406H86.5615C86.2275 11.6406 85.9375 11.6787 85.6914 11.7549C85.4453 11.8311 85.2432
               11.9395 85.085 12.0801C84.9268 12.2148 84.8096 12.373 84.7334 12.5547C84.6631 12.7363 84.6279 12.9355 84.6279 13.1523C84.6279 13.3691 84.6777 13.5654 84.7773 13.7412C84.877 13.9111 85.0205 14.0459 85.208 14.1455C85.3955 14.2393 85.6152 14.2861 85.8672 14.2861C86.248 14.2861 86.5791 14.21 86.8604 14.0576C87.1416 13.9053 87.3584 13.7178 87.5107 13.4951C87.6689 13.2725 87.751 13.0615 87.7568 12.8623L88.4248 13.9346C88.3311 14.1748 88.2021 14.4238 88.0381 14.6816C87.8799 14.9395 87.6777 15.1826
              87.4316 15.4111C87.1855 15.6338 86.8896 15.8184 86.5439 15.9648C86.1982 16.1055 85.7881 16.1758 85.3135 16.1758C84.71 16.1758 84.1621 16.0557 83.6699 15.8154C83.1836 15.5693 82.7969 15.2324 82.5098 14.8047C82.2285 14.3711 82.0879 13.8789 82.0879 13.3281C82.0879 12.8301 82.1816 12.3877 82.3691 12.001C82.5566 11.6143 82.832 11.2891 83.1953 11.0254C83.5645 10.7559 84.0244 10.5537 84.5752 10.4189C85.126 10.2783 85.7646 10.208 86.4912 10.208H87.959ZM95.0869 3.20312V16H92.459V3.20312H95.0869ZM99.877 8.52051V16H97.3457V6.49023H99.7188L99.877 8.52051ZM99.5078 10.9111H98.8223C98.8223
              10.208 98.9131 9.5752 99.0947 9.0127C99.2764 8.44434 99.5312 7.96094 99.8594 7.5625C100.188 7.1582 100.577 6.85059 101.028 6.63965C101.485 6.42285 101.995 6.31445 102.558 6.31445C103.003 6.31445 103.41 6.37891
             103.779 6.50781C104.148 6.63672 104.465 6.8418 104.729 7.12305C104.998 7.4043 105.203 7.77637 105.344 8.23926C105.49 8.70215 105.563 9.26758 105.563 9.93555V16H103.015V9.92676C103.015 9.50488 102.956 9.17676 102.839 8.94238C102.722 8.70801 102.549 8.54395 102.32 8.4502C102.098 8.35059 101.822 8.30078 101.494 8.30078C101.154 8.30078 100.858 8.36816 100.606 8.50293C100.36 8.6377 100.155 8.8252 99.9912 9.06543C99.833 9.2998 99.7129 9.5752 99.6309 9.8916C99.5488 10.208 99.5078 10.5479 99.5078 10.9111ZM110.714 16H108.165V5.64648C108.165 4.92578 108.306 4.31934 108.587
              3.82715C108.874 3.3291 109.275 2.9541 109.791 2.70215C110.312 2.44434 110.931 2.31543 111.646 2.31543C111.88 2.31543 112.105 2.33301 112.322 2.36816C112.539 2.39746 112.75 2.43555 112.955 2.48242L112.929 4.38965C112.817 4.36035 112.7 4.33984 112.577 4.32812C112.454 4.31641 112.311 4.31055 112.146 4.31055C111.842 4.31055 111.581 4.36328 111.364 4.46875C111.153 4.56836 110.992 4.71777 110.881 4.91699C110.77 5.11621 110.714 5.35937 110.714 5.64648V16ZM112.612 6.49023V8.2832H106.75V6.49023H112.612ZM113.535 11.3418V11.1572C113.535 10.46 113.635 9.81836 113.834 9.23242C114.033 8.64062
               114.323 8.12793 114.704 7.69434C115.085 7.26074 115.554 6.92383 116.11 6.68359C116.667 6.4375 117.306 6.31445 118.026 6.31445C118.747 6.31445 119.389 6.4375 119.951 6.68359C120.514 6.92383 120.985 7.26074 121.366 7.69434C121.753 8.12793 122.046 8.64062 122.245 9.23242C122.444 9.81836 122.544 10.46 122.544 11.1572V11.3418C122.544 12.0332 122.444 12.6748 122.245 13.2666C122.046 13.8525 121.753 14.3652 121.366 14.8047C120.985 15.2383 120.517 15.5752 119.96 15.8154C119.403 16.0557 118.765 16.1758 118.044 16.1758C117.323 16.1758 116.682 16.0557 116.119 15.8154C115.562 15.5752 115.091
                15.2383 114.704 14.8047C114.323 14.3652 114.033 13.8525 113.834 13.2666C113.635 12.6748 113.535 12.0332 113.535 11.3418ZM116.066 11.1572V11.3418C116.066 11.7402 116.102 12.1123 116.172 12.458C116.242 12.8037 116.354 13.1084 116.506 13.3721C116.664 13.6299 116.869 13.832 117.121 13.9785C117.373 14.125 117.681 14.1982 118.044 14.1982C118.396 14.1982 118.697 14.125 118.949 13.9785C119.201 13.832 119.403 13.6299 119.556 13.3721C119.708 13.1084 119.819 12.8037 119.89 12.458C119.966 12.1123 120.004 11.7402 120.004 11.3418V11.1572C120.004 10.7705 119.966 10.4072 119.89 10.0674C119.819
                9.72168 119.705 9.41699 119.547 9.15332C119.395 8.88379 119.192 8.67285 118.94 8.52051C118.688 8.36816 118.384 8.29199 118.026 8.29199C117.669 8.29199 117.364 8.36816 117.112 8.52051C116.866 8.67285 116.664 8.88379 116.506 9.15332C116.354 9.41699 116.242 9.72168 116.172 10.0674C116.102 10.4072 116.066 10.7705 116.066 11.1572Z"
        fill="#697077" />
    <path d="M36.6836 18.5H37.5918V24.9746L37.5137 26H36.6836V18.5ZM41.1611
        23.3145V23.417C41.1611 23.8011 41.1156 24.1576 41.0244 24.4863C40.9333
        24.8118 40.7998 25.0951 40.624 25.3359C40.4482 25.5768 40.2334 25.764
        39.9795 25.8975C39.7256 26.0309 39.4342 26.0977 39.1055 26.0977C38.7702
        26.0977 38.4756 26.0407 38.2217 25.9268C37.971 25.8096 37.7594 25.6419
        37.5869 25.4238C37.4144 25.2057 37.276 24.9421 37.1719 24.6328C37.071
        24.3236 37.001 23.9753 36.9619 23.5879V23.1387C37.001 22.748 37.071
        22.3981 37.1719 22.0889C37.276 21.7796 37.4144 21.516 37.5869 21.2979C37.7594
        21.0765 37.971 20.9089 38.2217 20.7949C38.4723 20.6777 38.7637 20.6191 39.0957
        20.6191C39.4277 20.6191 39.7223 20.6842 39.9795 20.8145C40.2367 20.9414 40.4515
        21.1237 40.624 21.3613C40.7998 21.599 40.9333 21.8838 41.0244 22.2158C41.1156
        22.5446 41.1611 22.9108 41.1611 23.3145ZM40.2529 23.417V23.3145C40.2529 23.0508
         40.2285 22.8034 40.1797 22.5723C40.1309 22.3379 40.0527 22.1328 39.9453
         21.957C39.8379 21.778 39.6963 21.638 39.5205 21.5371C39.3447 21.4329 39.1283
         21.3809 38.8711 21.3809C38.6432 21.3809 38.4447 21.4199 38.2754 21.498C38.1094
          21.5762 37.9678 21.682 37.8506 21.8154C37.7334 21.9456 37.6374 22.0954 37.5625
           22.2646C37.4909 22.4307 37.4372 22.6032 37.4014 22.7822V23.959C37.4535 24.1868
            37.5381 24.4066 37.6553 24.6182C37.7757 24.8265 37.9352 24.9974 38.1338
            25.1309C38.3356 25.2643 38.5846 25.3311 38.8809 25.3311C39.125 25.3311
            39.3333 25.2822 39.5059 25.1846C39.6816 25.0837 39.8232 24.9453 39.9307
            24.7695C40.0413 24.5938 40.1227 24.3903 40.1748 24.1592C40.2269 23.9281
             40.2529 23.6807 40.2529 23.417ZM43.7295 25.4531L45.1992 20.7168H46.166L44.0469
              26.8154C43.998 26.9456 43.9329 27.0856 43.8516 27.2354C43.7734 27.3883
              43.6725 27.5332 43.5488 27.6699C43.4251 27.8066 43.2754 27.9173 43.0996
              28.002C42.9271 28.0898 42.7204 28.1338 42.4795 28.1338C42.4079 28.1338
               42.3167 28.124 42.2061 28.1045C42.0954 28.085 42.0173 28.0687 41.9717
                28.0557L41.9668 27.3232C41.9928 27.3265 42.0335 27.3298 42.0889
                 27.333C42.1475 27.3395 42.1882 27.3428 42.2109 27.3428C42.416
                 27.3428 42.5902 27.3151 42.7334 27.2598C42.8766 27.2077 42.9971 27.1182
                 43.0947 26.9912C43.1956 26.8675 43.2819 26.6966 43.3535 26.4785L43.7295
                  25.4531ZM42.6504 20.7168L44.0225 24.8184L44.2568 25.7705L43.6074 26.1025L41.6641
                   20.7168H42.6504ZM51.8936 24.9209L53.9883 18.8906H55.0088L52.377
                   26H51.6494L51.8936 24.9209ZM49.9355 18.8906L52.0107 24.9209L52.2695
                   26H51.542L48.915 18.8906H49.9355ZM58.7197 25.0967V22.377C58.7197
                   22.1686 58.6774 21.988 58.5928 21.835C58.5114 21.6787 58.3877 21.5583
                   58.2217 21.4736C58.0557 21.389 57.8506 21.3467 57.6064 21.3467C57.3786
                   21.3467 57.1784 21.3857 57.0059 21.4639C56.8366 21.542 56.7031 21.6445
                    56.6055 21.7715C56.5111 21.8984 56.4639 22.0352 56.4639
                    22.1816H55.5605C55.5605 21.9928 55.6094 21.8057 55.707 21.6201C55.8047
                     21.4346 55.9447 21.2669 56.127 21.1172C56.3125 20.9642 56.5339 20.8438
                      56.791 20.7559C57.0514 20.6647 57.3411 20.6191 57.6602 20.6191C58.0443
                      20.6191 58.3828 20.6842 58.6758 20.8145C58.972 20.9447 59.2031 21.1416
                      59.3691 21.4053C59.5384 21.6657 59.623 21.9928 59.623 22.3867V24.8477C59.623
                      25.0234 59.6377 25.2106 59.667 25.4092C59.6995 25.6077 59.7467 25.7786 59.8086
                       25.9219V26H58.8662C58.8206 25.8958 58.7848 25.7575 58.7588 25.585C58.7327
                        25.4092 58.7197 25.2464 58.7197 25.0967ZM58.876 22.7969L58.8857
                        23.4316H57.9727C57.7155 23.4316 57.486 23.4528 57.2842 23.4951C57.0824
                        23.5342 56.9131 23.5944 56.7764 23.6758C56.6396 23.7572 56.5355 23.8597
                         56.4639 23.9834C56.3923 24.1038 56.3564 24.2454 56.3564 24.4082C56.3564
                         24.5742 56.3939 24.7256 56.4688 24.8623C56.5436 24.999 56.6559 25.1081
                          56.8057 25.1895C56.9587 25.2676 57.1458 25.3066 57.3672 25.3066C57.6439
                           25.3066 57.888 25.248 58.0996 25.1309C58.3112 25.0137 58.4788 24.8704
                           58.6025 24.7012C58.7295 24.5319 58.7979 24.3675 58.8076 24.208L59.1934
                           24.6426C59.1706 24.7793 59.1087 24.9307 59.0078 25.0967C58.9069 25.2627
                            58.7718 25.4222 58.6025 25.5752C58.4365 25.7249 58.238 25.8503 58.0068
                            25.9512C57.779 26.0488 57.5218 26.0977 57.2354 26.0977C56.8773 26.0977
                            56.5632 26.0277 56.293 25.8877C56.026 25.7477 55.8177 25.5605 55.668
                            25.3262C55.5215 25.0885 55.4482 24.8232 55.4482 24.5303C55.4482
                            24.2471 55.5036 23.998 55.6143 23.7832C55.7249 23.5651 55.8844 23.3844
                            56.0928 23.2412C56.3011 23.0947 56.5518 22.984 56.8447 22.9092C57.1377
                            22.8343 57.4648 22.7969 57.8262 22.7969H58.876ZM64.1592
                             25.0967V22.377C64.1592 22.1686 64.1169 21.988 64.0322
                             21.835C63.9508 21.6787 63.8271 21.5583 63.6611 21.4736C63.4951 21.389
                              63.29 21.3467 63.0459 21.3467C62.818 21.3467 62.6178 21.3857 62.4453
                               21.4639C62.276 21.542 62.1426 21.6445 62.0449 21.7715C61.9505 21.8984
                                61.9033 22.0352 61.9033 22.1816H61C61 21.9928 61.0488 21.8057 61.1465
                                21.6201C61.2441 21.4346 61.3841 21.2669 61.5664 21.1172C61.752 20.9642
                                 61.9733 20.8438 62.2305 20.7559C62.4909 20.6647 62.7806 20.6191 63.0996
                                  20.6191C63.4837 20.6191 63.8223 20.6842 64.1152 20.8145C64.4115
                                  20.9447 64.6426 21.1416 64.8086 21.4053C64.9779 21.6657 65.0625
                                  21.9928 65.0625 22.3867V24.8477C65.0625 25.0234 65.0771 25.2106
                                  65.1064 25.4092C65.139 25.6077 65.1862 25.7786 65.248
                                  25.9219V26H64.3057C64.2601 25.8958 64.2243 25.7575 64.1982 25.585C64.1722
                                   25.4092 64.1592 25.2464 64.1592 25.0967ZM64.3154 22.7969L64.3252
                                   23.4316H63.4121C63.1549
                             23.4316 62.9255 23.4528 62.7236 23.4951C62.5218 23.5342 62.3525 23.5944
                              62.2158 23.6758C62.0791 23.7572 61.9749 23.8597 61.9033 23.9834C61.8317
                              24.1038 61.7959 24.2454 61.7959 24.4082C61.7959 24.5742 61.8333 24.7256
                               61.9082 24.8623C61.9831 24.999 62.0954 25.1081 62.2451 25.1895C62.3981
                                25.2676 62.5853 25.3066 62.8066 25.3066C63.0833 25.3066 63.3275 25.248
                                 63.5391 25.1309C63.7507 25.0137 63.9183 24.8704 64.042 24.7012C64.1689
                                  24.5319 64.2373 24.3675 64.2471 24.208L64.6328 24.6426C64.61 24.7793
                                  64.5482 24.9307 64.4473 25.0967C64.3464 25.2627 64.2113 25.4222 64.042
                                   25.5752C63.876
                              25.7249 63.6774 25.8503 63.4463 25.9512C63.2184 26.0488 62.9613 26.0977 62.6748 26.0977C62.3167 26.0977 62.0026 26.0277 61.7324 25.8877C61.4655 25.7477 61.2572 25.5605 61.1074 25.3262C60.9609 25.0885 60.8877 24.8232 60.8877 24.5303C60.8877 24.2471 60.943 23.998 61.0537 23.7832C61.1644 23.5651 61.3239 23.3844 61.5322 23.2412C61.7406 23.0947 61.9912 22.984 62.2842 22.9092C62.5771 22.8343 62.9043 22.7969 63.2656 22.7969H64.3154ZM67.8896 25.4531L69.3594 20.7168H70.3262L68.207 26.8154C68.1582 26.9456 68.0931 27.0856 68.0117 27.2354C67.9336 27.3883 67.8327 27.5332 67.709 27.6699C67.5853
                              27.8066 67.4355 27.9173 67.2598 28.002C67.0872 28.0898 66.8805 28.1338 66.6396 28.1338C66.568 28.1338 66.4769 28.124 66.3662 28.1045C66.2555 28.085 66.1774 28.0687 66.1318 28.0557L66.127 27.3232C66.153 27.3265 66.1937 27.3298 66.249 27.333C66.3076 27.3395 66.3483 27.3428 66.3711 27.3428C66.5762 27.3428 66.7503 27.3151 66.8936 27.2598C67.0368 27.2077 67.1572 27.1182 67.2549 26.9912C67.3558 26.8675 67.4421 26.6966 67.5137 26.4785L67.8896 25.4531ZM66.8105 20.7168L68.1826 24.8184L68.417 25.7705L67.7676 26.1025L65.8242 20.7168H66.8105ZM74.1787 25.0967V22.377C74.1787 22.1686 74.1364 21.988
                               74.0518 21.835C73.9704 21.6787 73.8467 21.5583 73.6807 21.4736C73.5146 21.389 73.3096 21.3467 73.0654 21.3467C72.8376 21.3467 72.6374 21.3857 72.4648 21.4639C72.2956 21.542 72.1621 21.6445 72.0645 21.7715C71.9701 21.8984 71.9229 22.0352 71.9229 22.1816H71.0195C71.0195 21.9928 71.0684 21.8057 71.166 21.6201C71.2637 21.4346 71.4036 21.2669 71.5859 21.1172C71.7715 20.9642 71.9928 20.8438 72.25 20.7559C72.5104 20.6647 72.8001 20.6191 73.1191 20.6191C73.5033 20.6191 73.8418 20.6842 74.1348 20.8145C74.431 20.9447 74.6621 21.1416 74.8281 21.4053C74.9974 21.6657 75.082 21.9928 75.082
                               22.3867V24.8477C75.082 25.0234 75.0967 25.2106 75.126 25.4092C75.1585 25.6077 75.2057 25.7786 75.2676 25.9219V26H74.3252C74.2796 25.8958 74.2438 25.7575 74.2178 25.585C74.1917 25.4092 74.1787 25.2464 74.1787 25.0967ZM74.335 22.7969L74.3447 23.4316H73.4316C73.1745 23.4316 72.945 23.4528 72.7432 23.4951C72.5413 23.5342 72.3721 23.5944 72.2354 23.6758C72.0986 23.7572 71.9945 23.8597 71.9229 23.9834C71.8512 24.1038 71.8154 24.2454 71.8154 24.4082C71.8154 24.5742 71.8529 24.7256 71.9277 24.8623C72.0026 24.999 72.1149 25.1081 72.2646 25.1895C72.4176 25.2676 72.6048 25.3066 72.8262 25.3066C73.1029
                                25.3066 73.347 25.248 73.5586 25.1309C73.7702 25.0137 73.9378 24.8704 74.0615 24.7012C74.1885 24.5319 74.2568 24.3675 74.2666 24.208L74.6523 24.6426C74.6296 24.7793 74.5677 24.9307 74.4668 25.0967C74.3659 25.2627 74.2308 25.4222 74.0615 25.5752C73.8955 25.7249 73.6969 25.8503 73.4658 25.9512C73.238 26.0488 72.9808 26.0977 72.6943 26.0977C72.3363 26.0977 72.0221 26.0277 71.752 25.8877C71.485 25.7477 71.2767 25.5605 71.127 25.3262C70.9805 25.0885 70.9072 24.8232 70.9072 24.5303C70.9072 24.2471 70.9626 23.998 71.0732 23.7832C71.1839 23.5651 71.3434 23.3844 71.5518 23.2412C71.7601 23.0947 72.0107
                                 22.984 72.3037 22.9092C72.5967 22.8343 72.9238 22.7969 73.2852 22.7969H74.335ZM78.7148 20.7168V21.4102H75.8584V20.7168H78.7148ZM76.8252 19.4326H77.7285V24.6914C77.7285 24.8704 77.7562 25.0055 77.8115 25.0967C77.8669 25.1878 77.9385 25.248 78.0264 25.2773C78.1143 25.3066 78.2087 25.3213 78.3096 25.3213C78.3844 25.3213 78.4626 25.3148 78.5439 25.3018C78.6286 25.2855 78.6921 25.2725 78.7344 25.2627L78.7393 26C78.6676 26.0228 78.5732 26.0439
                 78.4561 26.0635C78.3421 26.0863 78.2038 26.0977 78.041 26.0977C77.8197 26.0977
                 77.6162 26.0537 77.4307 25.9658C77.2451 25.8779 77.097 25.7314 76.9863 25.5264C76.8789 25.318 76.8252 25.0381 76.8252 24.6865V19.4326ZM80.6777 18.5V26H79.7744V18.5H80.6777ZM80.4629 23.1582L80.0869 23.1436C80.0902 22.7822 80.1439 22.4486 80.248 22.1426C80.3522 21.8333 80.4987 21.5648 80.6875 21.3369C80.8763 21.109 81.1009 20.9333 81.3613 20.8096C81.625 20.6826 81.9163 20.6191 82.2354 20.6191C82.4958 20.6191 82.7301 20.6549 82.9385 20.7266C83.1468 20.7949 83.3242 20.9056 83.4707 21.0586C83.6204 21.2116 83.7344 21.4102 83.8125 21.6543C83.8906 21.8952 83.9297 22.1898 83.9297 22.5381V26H83.0215V22.5283C83.0215
                 22.2516 82.9808 22.0303 82.8994 21.8643C82.818 21.695 82.6992 21.5729 82.543 21.498C82.3867 21.4199 82.1947 21.3809 81.9668 21.3809C81.7422 21.3809 81.5371 21.4281 81.3516 21.5225C81.1693 21.6169 81.0114 21.7471 80.8779 21.9131C80.7477 22.0791 80.6452 22.2695 80.5703 22.4844C80.4987 22.696 80.4629 22.9206 80.4629 23.1582ZM88.9102 18.8906V26H87.9678V18.8906H88.9102ZM91.3906 21.8447V26H90.4873V20.7168H91.3418L91.3906 21.8447ZM91.1758 23.1582L90.7998 23.1436C90.8031 22.7822 90.8568 22.4486 90.9609 22.1426C91.0651 21.8333 91.2116 21.5648 91.4004 21.3369C91.5892 21.109 91.8138 20.9333 92.0742 20.8096C92.3379
                 20.6826 92.6292 20.6191 92.9482 20.6191C93.2087 20.6191 93.443 20.6549 93.6514 20.7266C93.8597 20.7949 94.0371 20.9056 94.1836 21.0586C94.3333 21.2116 94.4473 21.4102 94.5254 21.6543C94.6035 21.8952 94.6426 22.1898 94.6426 22.5381V26H93.7344V22.5283C93.7344 22.2516 93.6937 22.0303 93.6123 21.8643C93.5309 21.695 93.4121 21.5729 93.2559 21.498C93.0996 21.4199 92.9076 21.3809 92.6797 21.3809C92.4551 21.3809 92.25 21.4281 92.0645 21.5225C91.8822 21.6169 91.7243 21.7471 91.5908 21.9131C91.4606 22.0791 91.3581 22.2695 91.2832 22.4844C91.2116 22.696 91.1758 22.9206 91.1758 23.1582ZM97.3623 26H96.459V20.1602C96.459
                 19.7793 96.5273 19.4587 96.6641 19.1982C96.804 18.9346 97.0042 18.736 97.2646 18.6025C97.5251 18.4658 97.8343 18.3975 98.1924 18.3975C98.2965 18.3975 98.4007 18.404 98.5049 18.417C98.6123 18.43 98.7165 18.4495 98.8174 18.4756L98.7686 19.2129C98.7002 19.1966 98.6221 19.1852 98.5342 19.1787C98.4495 19.1722 98.3649 19.1689 98.2803 19.1689C98.0882 19.1689 97.9222 19.208 97.7822 19.2861C97.6455 19.361 97.5413 19.4717 97.4697 19.6182C97.3981 19.7646 97.3623 19.9453 97.3623 20.1602V26ZM98.4854 20.7168V21.4102H95.624V20.7168H98.4854ZM99.252 23.417V23.3047C99.252 22.9238 99.3073 22.5706 99.418 22.2451C99.5286 21.9163
                 99.6882 21.6315 99.8965 21.3906C100.105 21.1465 100.357 20.9577 100.653 20.8242C100.95 20.6875 101.282 20.6191 101.649 20.6191C102.021 20.6191 102.354 20.6875 102.65 20.8242C102.95 20.9577 103.204 21.1465 103.412 21.3906C103.624 21.6315 103.785 21.9163 103.896 22.2451C104.006 22.5706 104.062 22.9238 104.062 23.3047V23.417C104.062 23.7979 104.006 24.151 103.896 24.4766C103.785 24.8021 103.624 25.0869 103.412 25.3311C103.204 25.5719 102.951 25.7607 102.655 25.8975C102.362 26.0309 102.03 26.0977 101.659 26.0977C101.288 26.0977 100.954 26.0309 100.658 25.8975C100.362 25.7607 100.108 25.5719 99.8965 25.3311C99.6882
                 25.0869 99.5286 24.8021 99.418 24.4766C99.3073 24.151 99.252 23.7979 99.252 23.417ZM100.155 23.3047V23.417C100.155 23.6807 100.186 23.9297 100.248 24.1641C100.31 24.3952 100.403 24.6003 100.526 24.7793C100.653 24.9583 100.811 25.0999 101 25.2041C101.189 25.305 101.409 25.3555 101.659 25.3555C101.907 25.3555 102.123 25.305 102.309 25.2041C102.497 25.0999 102.654 24.9583 102.777 24.7793C102.901 24.6003 102.994 24.3952 103.056 24.1641C103.121 23.9297 103.153 23.6807 103.153 23.417V23.3047C103.153 23.0443 103.121 22.7985 103.056 22.5674C102.994 22.333 102.899 22.1263 102.772 21.9473C102.649 21.765 102.493 21.6217
                 102.304 21.5176C102.118 21.4134 101.9 21.3613 101.649 21.3613C101.402 21.3613 101.184 21.4134 100.995 21.5176C100.81 21.6217 100.653 21.765 100.526 21.9473C100.403 22.1263 100.31 22.333 100.248 22.5674C100.186 22.7985 100.155 23.0443 100.155 23.3047ZM107.406 20.7168V21.4102H104.55V20.7168H107.406ZM105.517 19.4326H106.42V24.6914C106.42 24.8704 106.448 25.0055 106.503 25.0967C106.558 25.1878 106.63 25.248 106.718 25.2773C106.806 25.3066 106.9 25.3213 107.001 25.3213C107.076 25.3213 107.154 25.3148 107.235 25.3018C107.32 25.2855 107.383 25.2725 107.426 25.2627L107.431 26C107.359 26.0228 107.265 26.0439 107.147
                 26.0635C107.034 26.0863 106.895 26.0977 106.732 26.0977C106.511 26.0977 106.308 26.0537 106.122 25.9658C105.937 25.8779 105.788 25.7314 105.678 25.5264C105.57 25.318 105.517 25.0381 105.517 24.6865V19.4326ZM110.658 26.0977C110.29 26.0977 109.957 26.0358 109.657 25.9121C109.361 25.7852 109.105 25.6077 108.891 25.3799C108.679 25.152 108.516 24.8818 108.402 24.5693C108.288 24.2568 108.231 23.915 108.231 23.5439V23.3389C108.231 22.9092 108.295 22.5267 108.422 22.1914C108.549 21.8529 108.721 21.5664 108.939 21.332C109.158 21.0977 109.405 20.9202 109.682 20.7998C109.958 20.6794 110.245 20.6191 110.541 20.6191C110.919
                  20.6191 111.244 20.6842 111.518 20.8145C111.794 20.9447 112.021 21.127 112.196 21.3613C112.372 21.5924 112.502 21.8659 112.587 22.1816C112.672 22.4941 112.714 22.8359 112.714 23.207V23.6123H108.769V22.875H111.811V22.8066C111.798 22.5723 111.749 22.3444 111.664 22.123C111.583 21.9017 111.452 21.7194 111.273 21.5762C111.094 21.4329 110.85 21.3613 110.541 21.3613C110.336 21.3613 110.147 21.4053 109.975 21.4932C109.802 21.5778 109.654 21.7048 109.53 21.874C109.407 22.0433 109.311 22.25 109.242 22.4941C109.174 22.7383 109.14 23.0199 109.14 23.3389V23.5439C109.14 23.7946 109.174 24.0306 109.242 24.252C109.314 24.4701
                   109.416 24.6621 109.55 24.8281C109.687 24.9941 109.851 25.1243 110.043 25.2188C110.238 25.3132 110.46 25.3604 110.707 25.3604C111.026 25.3604 111.296 25.2952 111.518 25.165C111.739 25.0348 111.933 24.8607 112.099 24.6426L112.646 25.0771C112.532 25.2497 112.387 25.4141 112.211 25.5703C112.035 25.7266 111.819 25.8535 111.562 25.9512C111.308 26.0488 111.007 26.0977 110.658 26.0977ZM115.883 25.3555C116.098 25.3555 116.296 25.3115 116.479 25.2236C116.661 25.1357 116.811 25.0153 116.928 24.8623C117.045 24.7061 117.112 24.5286 117.128 24.3301H117.987C117.971 24.6426 117.865 24.9339 117.67 25.2041C117.478 25.471 117.226
                   25.6875 116.913 25.8535C116.601 26.0163 116.257 26.0977 115.883 26.0977C115.486 26.0977 115.139 26.0277 114.843 25.8877C114.55 25.7477 114.306 25.5557 114.11 25.3115C113.918 25.0674 113.773 24.7874 113.676 24.4717C113.581 24.1527 113.534 23.8158 113.534 23.4609V23.2559C113.534 22.901 113.581 22.5658 113.676 22.25C113.773 21.931 113.918 21.6494 114.11 21.4053C114.306 21.1611 114.55 20.9691 114.843 20.8291C115.139 20.6891 115.486 20.6191 115.883 20.6191C116.296 20.6191 116.658 20.7038 116.967 20.873C117.276 21.0391 117.519 21.2669 117.694 21.5566C117.873 21.8431 117.971 22.1686 117.987 22.5332H117.128C117.112 22.3151
                   117.05 22.1182 116.942 21.9424C116.838 21.7666 116.695 21.6266 116.513 21.5225C116.334 21.415 116.124 21.3613 115.883 21.3613C115.606 21.3613 115.373 21.4167 115.185 21.5273C114.999 21.6348 114.851 21.7812 114.74 21.9668C114.633 22.1491 114.555 22.3525 114.506 22.5771C114.46 22.7985 114.438 23.0247 114.438 23.2559V23.4609C114.438 23.6921 114.46 23.9199 114.506 24.1445C114.551 24.3691 114.628 24.5726 114.735 24.7549C114.846 24.9372 114.994 25.0837 115.18 25.1943C115.368 25.3018 115.603 25.3555 115.883 25.3555ZM119.906 18.5V26H119.003V18.5H119.906ZM119.691 23.1582L119.315 23.1436C119.319 22.7822 119.372 22.4486 119.477
                   22.1426C119.581 21.8333 119.727 21.5648 119.916 21.3369C120.105 21.109 120.329 20.9333 120.59 20.8096C120.854 20.6826 121.145 20.6191 121.464 20.6191C121.724 20.6191 121.959 20.6549 122.167 20.7266C122.375 20.7949 122.553 20.9056 122.699 21.0586C122.849 21.2116 122.963 21.4102 123.041 21.6543C123.119 21.8952 123.158 22.1898 123.158 22.5381V26H122.25V22.5283C122.25 22.2516 122.209 22.0303 122.128 21.8643C122.047 21.695 121.928 21.5729 121.771 21.498C121.615 21.4199 121.423 21.3809 121.195 21.3809C120.971 21.3809 120.766 21.4281 120.58 21.5225C120.398 21.6169 120.24 21.7471 120.106 21.9131C119.976 22.0791 119.874
                   22.2695 119.799 22.4844C119.727 22.696 119.691 22.9206 119.691 23.1582Z"
        fill="#697077" />
</svg>
