<svg xmlns="http://www.w3.org/2000/svg" version="1.1" width="512" height="512">
    <path d="M0 0 C0.99304964 -0.00384115 1.98609929 -0.00768229 3.00924134 -0.01163983 C4.10824321 -0.01077335 5.20724507 -0.00990687 6.33955002 -0.00901413 C8.08148183 -0.01347081 8.08148183 -0.01347081 9.85860419 -0.01801753 C13.09195884 -0.02521289 16.32528118 -0.02787802 19.55864263 -0.028615 C23.0420601 -0.03046272 26.525466 -0.03800868 30.0088768 -0.04475021 C37.63081738 -0.05834631 45.25275271 -0.06436039 52.87470341 -0.06876087 C57.63237304 -0.07152144 62.39004064 -0.07575848 67.14770889 -0.08026505 C80.31555809 -0.09245995 93.48340565 -0.10275845 106.65126038 -0.10614014 C107.49444997 -0.1063597 108.33763956 -0.10657927 109.20638035 -0.10680549 C110.47422718 -0.10713291 110.47422718 -0.10713291 111.76768708 -0.10746694 C113.48050451 -0.10791041 115.19332194 -0.10835697 116.90613937 -0.10880661 C118.18056989 -0.10913875 118.18056989 -0.10913875 119.48074648 -0.10947761 C133.24705849 -0.11342544 147.01331756 -0.13087802 160.77960911 -0.15416613 C174.90711855 -0.17787271 189.03460142 -0.19034169 203.16213107 -0.19150805 C211.09665861 -0.19242527 219.0311172 -0.19818908 226.96562576 -0.21632767 C233.72248327 -0.23171939 240.47925052 -0.23685468 247.23612222 -0.22858956 C250.68395112 -0.22467958 254.13159823 -0.22562938 257.57940483 -0.23964691 C261.31707515 -0.25229203 265.05427602 -0.24652962 268.7919426 -0.23606491 C269.88202157 -0.24412132 270.97210055 -0.25217772 272.09521222 -0.26047826 C278.53871846 -0.21816384 283.20916981 0.32085256 288.18299484 4.81502151 C288.66123703 5.39381058 289.13947922 5.97259964 289.63221359 6.56892776 C290.12334641 7.1451387 290.61447922 7.72134964 291.12049484 8.31502151 C293.82350879 12.40916316 293.46287959 16.94548932 293.45114136 21.69435215 C293.45319399 22.463392 293.45524662 23.23243186 293.45736146 24.02477595 C293.46304229 26.61684579 293.46157288 29.20886267 293.46015549 31.80093765 C293.4627385 33.67206101 293.46575147 35.54318382 293.46915889 37.41430587 C293.47723957 42.56807144 293.47901905 47.7218231 293.47975636 52.87559426 C293.48160503 58.42922409 293.48915138 63.98284667 293.49589157 69.53647232 C293.50948255 81.68507737 293.51550067 93.83367912 293.51990223 105.98229051 C293.5226631 113.56452711 293.52690015 121.14676244 293.5314064 128.72899818 C293.54359958 149.71267006 293.55393451 170.69634125 293.55728149 191.68001652 C293.55750313 193.03698025 293.55772491 194.39394397 293.55794685 195.7509077 C293.55816749 197.11115595 293.55838797 198.47140421 293.55860829 199.83165246 C293.55905085 202.56056519 293.55949796 205.28947793 293.55994797 208.01839066 C293.56011205 209.03330824 293.56011205 209.03330824 293.56027946 210.06872921 C293.56391091 232.01290526 293.57983458 253.9570483 293.60313833 275.9012117 C293.62772836 299.09898469 293.6414472 322.29673954 293.64264941 345.494528 C293.64356708 358.14124685 293.64934254 370.78792247 293.66746902 383.43462944 C293.68284696 394.20178757 293.68800409 404.9688891 293.67973092 415.73605613 C293.67581637 421.23154189 293.67679328 426.72691358 293.69078827 432.22238541 C293.70347873 437.25149168 293.7023725 442.2803976 293.69019756 447.3095034 C293.68823213 449.13049419 293.69135779 450.95149895 293.70004192 452.77247009 C293.71109081 455.2455509 293.70367715 457.71791918 293.69165039 460.19097996 C293.70304318 461.25424047 293.70304318 461.25424047 293.71466613 462.338981 C293.65494997 468.01762774 292.40304888 472.75453159 288.60096359 477.09236526 C288.01315109 477.55900589 287.42533859 478.02564651 286.81971359 478.50642776 C286.23190109 478.98853714 285.64408859 479.47064651 285.03846359 479.96736526 C281.60745595 482.29109317 278.54724618 482.25810189 274.53248501 482.26285553 C273.3179904 482.26669667 272.10349578 482.27053782 270.8521983 482.27449536 C269.49743182 482.27371508 268.14266538 482.27283629 266.78789902 482.27186966 C265.35415467 482.27445262 263.92041104 482.27746559 262.48666841 482.28087306 C258.53727884 482.28895438 254.58790744 482.29073326 250.63851058 482.29147053 C246.3827801 482.29331911 242.1270591 482.30086543 237.87133408 482.30760574 C228.56148971 482.32119741 219.25164965 482.32721502 209.94179702 482.3316164 C204.13098862 482.3343773 198.32018189 482.33861436 192.50937462 482.34312057 C176.42741596 482.35531411 160.34545863 482.3656134 144.26349545 482.36899567 C143.23388146 482.36921523 142.20426748 482.3694348 141.14345308 482.36966102 C140.11134824 482.3698793 139.07924339 482.37009757 138.01586264 482.37032247 C135.92435658 482.37076594 133.83285052 482.3712125 131.74134445 482.37166214 C130.70388088 482.37188357 129.66641731 482.372105 128.59751544 482.37233314 C111.78230423 482.37628218 94.96713633 482.39373905 78.15194186 482.41702166 C60.89652682 482.44072138 43.64113353 482.45319688 26.38570195 482.45436358 C16.69397042 482.4552811 7.00229531 482.46105263 -2.6894207 482.4791832 C-10.94126958 482.49456555 -19.19304459 482.49971568 -27.44490508 482.49144509 C-31.65625405 482.48753202 -35.86745418 482.48850014 -40.07878494 482.50250244 C-43.9334974 482.51520199 -47.78794857 482.51407879 -51.64266046 482.50191173 C-53.03769098 482.49994786 -54.43273976 482.5030649 -55.82774458 482.51175609 C-57.7236443 482.52282081 -59.61962995 482.51358589 -61.5155344 482.50336456 C-63.09538969 482.5042602 -63.09538969 482.5042602 -64.70716125 482.50517392 C-69.83456921 481.86061679 -73.72048248 479.65420933 -76.99278641 475.69392776 C-77.48391922 475.11771683 -77.97505203 474.54150589 -78.48106766 473.94783401 C-81.03025703 470.08668399 -80.80986461 466.05855048 -80.82288742 461.53957367 C-80.82613844 460.87551258 -80.82938946 460.21145149 -80.832739 459.52726734 C-80.84243735 457.29230389 -80.84503059 455.05738893 -80.84764481 452.82240677 C-80.8530915 451.20773293 -80.858955 449.59306045 -80.86520052 447.9783895 C-80.88105686 443.53345957 -80.89056872 439.08853515 -80.89896536 434.64358568 C-80.90696836 430.83307752 -80.91865902 427.02258426 -80.93038017 423.21208599 C-80.97228427 409.56542764 -80.99949028 395.91875178 -81.02403641 382.27205276 C-81.02601131 381.19533951 -81.02798621 380.11862626 -81.03002095 379.00928533 C-81.06917779 357.6348803 -81.10288494 336.26046945 -81.125103 314.88603973 C-81.13007238 310.18691118 -81.1351167 305.48778271 -81.14024734 300.78865433 C-81.14151802 299.62069383 -81.14278869 298.45273333 -81.14409786 297.24938008 C-81.16546698 278.32096256 -81.2144723 259.39271841 -81.27449149 240.46438816 C-81.33558588 221.03705149 -81.37028684 201.60980434 -81.37957621 182.18237281 C-81.3854911 171.27205509 -81.40328342 160.36203125 -81.45096207 149.45180893 C-81.49152165 140.16206283 -81.50845633 130.87265858 -81.49430925 121.58282784 C-81.48783357 116.84240501 -81.49275017 112.10271063 -81.52818298 107.36240005 C-81.56036725 103.02187854 -81.56019458 98.68260029 -81.53436595 94.34204742 C-81.53071491 92.77270216 -81.53889059 91.20327502 -81.56014746 89.63406947 C-81.72784997 76.4592683 -81.72784997 76.4592683 -77.33799839 71.36154842 C-76.14538113 70.25542843 -74.92651164 69.1767794 -73.68028641 68.13142776 C-72.54638721 66.9747859 -71.42100575 65.80966549 -70.30838394 64.63254166 C-69.13042105 63.44875622 -67.94983377 62.26757783 -66.76695633 61.08870316 C-66.1156575 60.43565201 -65.46435867 59.78260086 -64.79332352 59.10976028 C-62.66828639 56.98036848 -60.53966849 54.85459993 -58.41075516 52.72908401 C-56.92324848 51.24090295 -55.43589021 49.75257353 -53.94867325 48.26410294 C-50.84626525 45.16022706 -47.74207157 42.05815134 -44.63658524 38.9573555 C-40.6505955 34.97709247 -36.66915219 30.9923165 -32.68900967 27.00620747 C-29.62571739 23.93931043 -26.56005833 20.8747882 -23.4936657 17.81099129 C-22.02366871 16.34166226 -20.55441663 14.87158762 -19.08591652 13.40076256 C-17.04189667 11.35421439 -14.99471851 9.31087985 -12.94664383 7.26839066 C-12.33833221 6.65805481 -11.7300206 6.04771896 -11.1032753 5.41888809 C-7.18803383 1.52348965 -5.476297 0.00792131 0 0 Z " fill="#DDE1E6" transform="translate(149.6802864074707,14.868572235107422)"/>
    <path d="M0 0 C0.99304964 -0.00384115 1.98609929 -0.00768229 3.00924134 -0.01163983 C4.10824321 -0.01077335 5.20724507 -0.00990687 6.33955002 -0.00901413 C8.08148183 -0.01347081 8.08148183 -0.01347081 9.85860419 -0.01801753 C13.09195884 -0.02521289 16.32528118 -0.02787802 19.55864263 -0.028615 C23.0420601 -0.03046272 26.525466 -0.03800868 30.0088768 -0.04475021 C37.63081738 -0.05834631 45.25275271 -0.06436039 52.87470341 -0.06876087 C57.63237304 -0.07152144 62.39004064 -0.07575848 67.14770889 -0.08026505 C80.31555809 -0.09245995 93.48340565 -0.10275845 106.65126038 -0.10614014 C107.49444997 -0.1063597 108.33763956 -0.10657927 109.20638035 -0.10680549 C110.47422718 -0.10713291 110.47422718 -0.10713291 111.76768708 -0.10746694 C113.48050451 -0.10791041 115.19332194 -0.10835697 116.90613937 -0.10880661 C118.18056989 -0.10913875 118.18056989 -0.10913875 119.48074648 -0.10947761 C133.24705849 -0.11342544 147.01331756 -0.13087802 160.77960911 -0.15416613 C174.90711855 -0.17787271 189.03460142 -0.19034169 203.16213107 -0.19150805 C211.09665861 -0.19242527 219.0311172 -0.19818908 226.96562576 -0.21632767 C233.72248327 -0.23171939 240.47925052 -0.23685468 247.23612222 -0.22858956 C250.68395112 -0.22467958 254.13159823 -0.22562938 257.57940483 -0.23964691 C261.31707515 -0.25229203 265.05427602 -0.24652962 268.7919426 -0.23606491 C269.88202157 -0.24412132 270.97210055 -0.25217772 272.09521222 -0.26047826 C278.53871846 -0.21816384 283.20916981 0.32085256 288.18299484 4.81502151 C288.66123703 5.39381058 289.13947922 5.97259964 289.63221359 6.56892776 C290.12334641 7.1451387 290.61447922 7.72134964 291.12049484 8.31502151 C293.82350879 12.40916316 293.46287959 16.94548932 293.45114136 21.69435215 C293.45319399 22.463392 293.45524662 23.23243186 293.45736146 24.02477595 C293.46304229 26.61684579 293.46157288 29.20886267 293.46015549 31.80093765 C293.4627385 33.67206101 293.46575147 35.54318382 293.46915889 37.41430587 C293.47723957 42.56807144 293.47901905 47.7218231 293.47975636 52.87559426 C293.48160503 58.42922409 293.48915138 63.98284667 293.49589157 69.53647232 C293.50948255 81.68507737 293.51550067 93.83367912 293.51990223 105.98229051 C293.5226631 113.56452711 293.52690015 121.14676244 293.5314064 128.72899818 C293.54359958 149.71267006 293.55393451 170.69634125 293.55728149 191.68001652 C293.55750313 193.03698025 293.55772491 194.39394397 293.55794685 195.7509077 C293.55816749 197.11115595 293.55838797 198.47140421 293.55860829 199.83165246 C293.55905085 202.56056519 293.55949796 205.28947793 293.55994797 208.01839066 C293.56011205 209.03330824 293.56011205 209.03330824 293.56027946 210.06872921 C293.56391091 232.01290526 293.57983458 253.9570483 293.60313833 275.9012117 C293.62772836 299.09898469 293.6414472 322.29673954 293.64264941 345.494528 C293.64356708 358.14124685 293.64934254 370.78792247 293.66746902 383.43462944 C293.68284696 394.20178757 293.68800409 404.9688891 293.67973092 415.73605613 C293.67581637 421.23154189 293.67679328 426.72691358 293.69078827 432.22238541 C293.70347873 437.25149168 293.7023725 442.2803976 293.69019756 447.3095034 C293.68823213 449.13049419 293.69135779 450.95149895 293.70004192 452.77247009 C293.71109081 455.2455509 293.70367715 457.71791918 293.69165039 460.19097996 C293.70304318 461.25424047 293.70304318 461.25424047 293.71466613 462.338981 C293.65494997 468.01762774 292.40304888 472.75453159 288.60096359 477.09236526 C288.01315109 477.55900589 287.42533859 478.02564651 286.81971359 478.50642776 C286.23190109 478.98853714 285.64408859 479.47064651 285.03846359 479.96736526 C281.60745595 482.29109317 278.54724618 482.25810189 274.53248501 482.26285553 C273.3179904 482.26669667 272.10349578 482.27053782 270.8521983 482.27449536 C269.49743182 482.27371508 268.14266538 482.27283629 266.78789902 482.27186966 C265.35415467 482.27445262 263.92041104 482.27746559 262.48666841 482.28087306 C258.53727884 482.28895438 254.58790744 482.29073326 250.63851058 482.29147053 C246.3827801 482.29331911 242.1270591 482.30086543 237.87133408 482.30760574 C228.56148971 482.32119741 219.25164965 482.32721502 209.94179702 482.3316164 C204.13098862 482.3343773 198.32018189 482.33861436 192.50937462 482.34312057 C176.42741596 482.35531411 160.34545863 482.3656134 144.26349545 482.36899567 C143.23388146 482.36921523 142.20426748 482.3694348 141.14345308 482.36966102 C140.11134824 482.3698793 139.07924339 482.37009757 138.01586264 482.37032247 C135.92435658 482.37076594 133.83285052 482.3712125 131.74134445 482.37166214 C130.70388088 482.37188357 129.66641731 482.372105 128.59751544 482.37233314 C111.78230423 482.37628218 94.96713633 482.39373905 78.15194186 482.41702166 C60.89652682 482.44072138 43.64113353 482.45319688 26.38570195 482.45436358 C16.69397042 482.4552811 7.00229531 482.46105263 -2.6894207 482.4791832 C-10.94126958 482.49456555 -19.19304459 482.49971568 -27.44490508 482.49144509 C-31.65625405 482.48753202 -35.86745418 482.48850014 -40.07878494 482.50250244 C-43.9334974 482.51520199 -47.78794857 482.51407879 -51.64266046 482.50191173 C-53.03769098 482.49994786 -54.43273976 482.5030649 -55.82774458 482.51175609 C-57.7236443 482.52282081 -59.61962995 482.51358589 -61.5155344 482.50336456 C-63.09538969 482.5042602 -63.09538969 482.5042602 -64.70716125 482.50517392 C-69.83456921 481.86061679 -73.72048248 479.65420933 -76.99278641 475.69392776 C-77.48391922 475.11771683 -77.97505203 474.54150589 -78.48106766 473.94783401 C-81.03025703 470.08668399 -80.80986461 466.05855048 -80.82288742 461.53957367 C-80.82613844 460.87551258 -80.82938946 460.21145149 -80.832739 459.52726734 C-80.84243735 457.29230389 -80.84503059 455.05738893 -80.84764481 452.82240677 C-80.8530915 451.20773293 -80.858955 449.59306045 -80.86520052 447.9783895 C-80.88105686 443.53345957 -80.89056872 439.08853515 -80.89896536 434.64358568 C-80.90696836 430.83307752 -80.91865902 427.02258426 -80.93038017 423.21208599 C-80.97228427 409.56542764 -80.99949028 395.91875178 -81.02403641 382.27205276 C-81.02601131 381.19533951 -81.02798621 380.11862626 -81.03002095 379.00928533 C-81.06917779 357.6348803 -81.10288494 336.26046945 -81.125103 314.88603973 C-81.13007238 310.18691118 -81.1351167 305.48778271 -81.14024734 300.78865433 C-81.14151802 299.62069383 -81.14278869 298.45273333 -81.14409786 297.24938008 C-81.16546698 278.32096256 -81.2144723 259.39271841 -81.27449149 240.46438816 C-81.33558588 221.03705149 -81.37028684 201.60980434 -81.37957621 182.18237281 C-81.3854911 171.27205509 -81.40328342 160.36203125 -81.45096207 149.45180893 C-81.49152165 140.16206283 -81.50845633 130.87265858 -81.49430925 121.58282784 C-81.48783357 116.84240501 -81.49275017 112.10271063 -81.52818298 107.36240005 C-81.56036725 103.02187854 -81.56019458 98.68260029 -81.53436595 94.34204742 C-81.53071491 92.77270216 -81.53889059 91.20327502 -81.56014746 89.63406947 C-81.72784997 76.4592683 -81.72784997 76.4592683 -77.33799839 71.36154842 C-76.14538113 70.25542843 -74.92651164 69.1767794 -73.68028641 68.13142776 C-72.54638721 66.9747859 -71.42100575 65.80966549 -70.30838394 64.63254166 C-69.13042105 63.44875622 -67.94983377 62.26757783 -66.76695633 61.08870316 C-66.1156575 60.43565201 -65.46435867 59.78260086 -64.79332352 59.10976028 C-62.66828639 56.98036848 -60.53966849 54.85459993 -58.41075516 52.72908401 C-56.92324848 51.24090295 -55.43589021 49.75257353 -53.94867325 48.26410294 C-50.84626525 45.16022706 -47.74207157 42.05815134 -44.63658524 38.9573555 C-40.6505955 34.97709247 -36.66915219 30.9923165 -32.68900967 27.00620747 C-29.62571739 23.93931043 -26.56005833 20.8747882 -23.4936657 17.81099129 C-22.02366871 16.34166226 -20.55441663 14.87158762 -19.08591652 13.40076256 C-17.04189667 11.35421439 -14.99471851 9.31087985 -12.94664383 7.26839066 C-12.33833221 6.65805481 -11.7300206 6.04771896 -11.1032753 5.41888809 C-7.18803383 1.52348965 -5.476297 0.00792131 0 0 Z M5.31971359 14.13142776 C5.31091423 15.31746849 5.31091423 15.31746849 5.3019371 16.52746964 C5.24397937 23.98720926 5.17188542 31.44661605 5.08399868 38.90605831 C5.03931375 42.74084424 5.00005376 46.57552439 4.97327805 50.4104805 C4.94722592 54.11300471 4.90681071 57.81512148 4.85652733 61.51739311 C4.83987138 62.92828991 4.82834915 64.33925715 4.82209969 65.75023842 C4.81244571 67.72987324 4.78267408 69.70937876 4.75208664 71.68880081 C4.74098358 72.81465088 4.72988052 73.94050095 4.71844101 75.10046768 C4.26189499 78.57094075 3.50918652 80.40624846 1.31971359 83.13142776 C-2.39610641 85.22302867 -5.72551838 85.39878294 -9.93931961 85.45027542 C-11.18022858 85.47014511 -12.42113754 85.4900148 -13.69964981 85.5104866 C-15.04345395 85.52236105 -16.38725997 85.53402403 -17.73106766 85.54549026 C-19.11398841 85.56421275 -20.49689788 85.58378697 -21.87979507 85.60417557 C-25.50794679 85.65538895 -29.1361355 85.69507207 -32.76445389 85.73231888 C-36.47151637 85.77242651 -40.1784264 85.82348792 -43.88536453 85.87361526 C-51.1502337 85.97024659 -58.41517695 86.05469189 -65.68028641 86.13142776 C-65.7031506 134.65155305 -65.72078352 183.1716778 -65.73135174 231.69180742 C-65.73260252 237.41362423 -65.73389683 243.13544104 -65.73521805 248.85725784 C-65.73548036 249.99641976 -65.73574267 251.13558168 -65.73601293 252.30926365 C-65.7403701 270.78022255 -65.74825791 289.25117836 -65.7574392 307.72213542 C-65.76677443 326.66001787 -65.77234174 345.59789869 -65.7743749 364.53578335 C-65.7757504 376.23148414 -65.78010245 387.92717617 -65.78820287 399.62287427 C-65.79346872 407.63145611 -65.79509107 415.64003339 -65.79378778 423.64861684 C-65.79314415 428.27648068 -65.79416477 432.90432918 -65.79949188 437.53219032 C-65.8043252 441.76170079 -65.80462551 445.99118545 -65.8011853 450.22069705 C-65.80075954 451.75771731 -65.80205584 453.29473912 -65.80516959 454.83175629 C-65.8091326 456.90725716 -65.80705043 458.98266261 -65.80333424 461.05816174 C-65.80371396 462.21516958 -65.80409368 463.37217743 -65.8044849 464.56424612 C-65.97179573 467.06395556 -65.97179573 467.06395556 -64.68028641 468.13142776 C-62.86199942 468.22984077 -61.03983942 468.25698409 -59.21889114 468.25726891 C-58.02619551 468.25987665 -56.83349987 468.2624844 -55.60466194 468.26517117 C-54.26414729 468.26300865 -52.92363279 468.26075197 -51.58311844 468.25841141 C-50.17228594 468.25956226 -48.76145374 468.26114955 -47.35062218 468.26313865 C-43.45546584 468.26733687 -39.56033381 468.26523908 -35.66517735 468.26215243 C-31.47154254 468.25990054 -27.27791207 468.26337689 -23.08427811 468.26613235 C-14.86172337 468.27059132 -6.63917774 468.26961303 1.58337736 468.26671971 C8.26288522 468.26446617 14.94239052 468.26415294 21.62189865 468.26524353 C22.57064798 468.26539676 23.51939731 468.26555 24.49689662 468.26570787 C26.42394336 468.26602758 28.3509901 468.26635179 30.27803683 468.26668046 C48.3704403 468.26953563 66.46283871 468.26624767 84.55524135 468.2608801 C100.09717734 468.25641203 115.63910586 468.25718795 131.18104172 468.26179886 C149.20637065 468.26714399 167.23169515 468.26926093 185.25702477 468.26618659 C187.17719269 468.26586803 189.09736061 468.26555366 191.01752853 468.26524353 C191.96241855 468.26508925 192.90730856 468.26493498 193.8808316 468.26477603 C200.55640321 468.26391069 207.23197201 468.26537412 213.90754318 468.26772308 C222.03696372 468.2705206 230.16637459 468.26978385 238.29579401 468.26444234 C242.44772658 468.26180467 246.599643 468.26080137 250.75157547 468.26409149 C254.5461998 468.26705311 258.3407929 468.26546391 262.13541436 468.26011394 C263.51426228 468.25898917 264.89311279 468.25958223 266.27195907 468.26198973 C268.13407706 468.2649937 269.99620236 468.26134029 271.85831833 468.25726891 C273.41530787 468.25702538 273.41530787 468.25702538 275.00375175 468.25677693 C277.28173317 468.39202746 277.28173317 468.39202746 278.31971359 467.13142776 C278.41938953 464.72894332 278.45334417 462.35516806 278.44555473 459.95212173 C278.44700817 459.18812258 278.44846161 458.42412343 278.4499591 457.63697278 C278.4536457 455.04404062 278.45012046 452.45116627 278.44669724 449.85823441 C278.44784801 447.99367397 278.44943523 446.12911376 278.45142448 444.26455402 C278.45562387 439.11522653 278.45352438 433.96591742 278.45043826 428.81658983 C278.44818684 423.27324959 278.45166248 417.72991263 278.45441818 412.18657303 C278.45887766 401.31703753 278.45789863 390.44750891 278.45500554 379.57797313 C278.4527522 370.74838883 278.45243868 361.91880646 278.45352936 353.08922195 C278.45368259 351.83518289 278.45383582 350.58114382 278.4539937 349.28910357 C278.45431341 346.74198683 278.45463762 344.19487009 278.45496629 341.64775336 C278.45774012 318.41498645 278.45485777 295.18222359 278.44962369 271.94945754 C278.44487778 250.72202633 278.44530239 229.49460111 278.45008469 208.26716995 C278.45543452 184.44069302 278.45754691 160.6142194 278.45447242 136.78774166 C278.45415385 134.24970563 278.45383948 131.7116696 278.45352936 129.17363358 C278.45337508 127.92469143 278.45322081 126.67574929 278.45306186 125.38896042 C278.45219644 116.56435603 278.45366011 107.73975375 278.45600891 98.91514969 C278.45880614 88.16898718 278.4580703 77.42283198 278.45272817 66.67667031 C278.4500901 61.18806318 278.44908786 55.69946826 278.45237732 50.21086121 C278.45533813 45.19496054 278.4537511 40.1790835 278.44839977 35.163185 C278.44727465 33.34019458 278.44786882 31.51720221 278.45027556 29.69421303 C278.45327777 27.23302413 278.45023692 24.77191821 278.44555473 22.3107338 C278.4478959 21.58848252 278.45023707 20.86623124 278.45264918 20.12209356 C278.72205245 16.84525057 278.72205245 16.84525057 277.31971359 14.13142776 C275.86535558 14.03474525 274.40630889 14.00770979 272.94874096 14.00837994 C271.52452899 14.00539336 271.52452899 14.00539336 270.07154506 14.00234646 C269.01611997 14.0052593 267.96069487 14.00817214 266.8732872 14.01117325 C265.2059162 14.00989161 265.2059162 14.00989161 263.50486094 14.00858408 C259.74903739 14.00692602 255.99325769 14.01245596 252.2374382 14.01790237 C249.55752079 14.0181842 246.87760613 14.01807072 244.19768906 14.01745987 C238.41201885 14.01693444 232.62635989 14.0200832 226.84069252 14.02569771 C218.47549543 14.03381017 210.11030379 14.03642767 201.74510319 14.0376857 C188.17451125 14.03987662 174.60392532 14.04653779 161.03333664 14.05598831 C147.84746455 14.06516139 134.66159409 14.07224273 121.47571945 14.07649612 C120.25741934 14.07689021 120.25741934 14.07689021 119.01450711 14.07729226 C114.94011037 14.07859725 110.86571362 14.07986097 106.79131687 14.08110416 C72.96744476 14.09147802 39.14357991 14.10909742 5.31971359 14.13142776 Z " fill="#010101" transform="translate(149.6802864074707,14.868572235107422)"/>
    <path d="M0 0 C9.53603217 7.02103467 15.41272209 14.92566626 19.1875 26.25 C20.61943505 40.19595987 18.9612572 52.1974753 10.4375 63.6875 C6.64208205 68.1106772 2.391382 71.59407682 -2.8125 74.25 C-3.4725 74.25 -4.1325 74.25 -4.8125 74.25 C-4.750625 75.549375 -4.68875 76.84875 -4.625 78.1875 C-4.63834415 86.67438188 -7.69093022 93.89425012 -13.53125 100.06640625 C-22.6725484 108.75426723 -32.72580909 108.70436245 -44.6875 108.6484375 C-46.22249489 108.65046277 -47.75748884 108.65337796 -49.29248047 108.65713501 C-52.49651323 108.66153709 -55.70029365 108.65519613 -58.90429688 108.64111328 C-62.98941134 108.62402245 -67.07393428 108.63387509 -71.1590271 108.65183067 C-74.32483288 108.66272612 -77.49050087 108.65919594 -80.65631104 108.6514473 C-82.16164217 108.64946117 -83.66698625 108.65184809 -85.17230225 108.65888596 C-96.11782996 108.69884279 -106.53953598 108.26567088 -114.8125 100.25 C-120.64645774 92.97771627 -123.33682309 86.41987901 -123.12109375 77.0546875 C-122.22326551 68.8946789 -117.59898699 62.80956593 -111.8125 57.25 C-105.30674394 52.20471979 -99.46606987 50.94396196 -91.3515625 51.0546875 C-90.56099457 51.0575174 -89.77042664 51.06034729 -88.9559021 51.06326294 C-86.44960916 51.07439045 -83.94368355 51.09948074 -81.4375 51.125 C-79.73047394 51.13503942 -78.02344223 51.14416359 -76.31640625 51.15234375 C-72.1482976 51.17430537 -67.98046092 51.20878329 -63.8125 51.25 C-64.13557129 50.00581299 -64.45864258 48.76162598 -64.79150391 47.47973633 C-67.78369144 35.95645651 -66.07748294 25.19660954 -60.52734375 14.85546875 C-54.03975025 4.24762089 -44.79882957 -1.64420517 -33.4375 -6.0625 C-21.6731597 -8.29366799 -10.2086434 -6.41986853 0 0 Z " fill="#000000" transform="translate(322.8125,42.75)"/>
    <path d="M0 0 C0.74380197 -0.0055344 1.48760393 -0.01106879 2.25394535 -0.0167709 C4.74767985 -0.03039025 7.24041569 -0.01540197 9.73413086 -0.00050354 C11.52131577 -0.00428626 13.30849776 -0.00978592 15.09567261 -0.01687622 C19.95104571 -0.03085421 24.80606539 -0.01964462 29.66141891 -0.00316501 C34.73912596 0.01067068 39.81681217 0.00422711 44.89453125 0.0007019 C53.42217718 -0.00200139 61.94968246 0.01148566 70.47729492 0.03465271 C80.34076783 0.06126318 90.20400552 0.06300998 100.06750202 0.05126435 C109.55023017 0.0404905 119.03287311 0.04667055 128.51559448 0.06081963 C132.5538026 0.06658284 136.59194843 0.06649411 140.63015747 0.06175423 C145.38425892 0.05698694 150.13810234 0.06707583 154.89215469 0.08870888 C156.63848119 0.0942803 158.38483246 0.09473879 160.13116074 0.08975601 C162.51204461 0.0838139 164.89213675 0.09628699 167.27294922 0.11352539 C168.31360834 0.10451032 168.31360834 0.10451032 169.37529087 0.09531313 C172.36399775 0.13475876 174.41531095 0.38198264 177.06544495 1.8105917 C178.63647461 3.50120544 178.63647461 3.50120544 179.13647461 6.93870544 C178.63647461 10.50120544 178.63647461 10.50120544 177.06544495 12.69211578 C173.84296627 15.09220802 171.13769603 15.05884606 167.27294922 15.00914001 C166.52914725 15.01537998 165.78534529 15.02161994 165.01900387 15.02804899 C162.52528676 15.04401089 160.03254281 15.03136288 157.53881836 15.01878357 C155.75163197 15.02420329 153.96445005 15.0313251 152.17727661 15.0400238 C147.32191668 15.05827797 142.46689626 15.051181 137.6115303 15.03850746 C132.53381678 15.02839064 127.45613261 15.03776947 122.37841797 15.04405212 C113.8507769 15.05133237 105.32327434 15.04173092 96.7956543 15.02268982 C86.93213902 15.00092037 77.06895446 15.00797148 67.2054472 15.02999544 C58.741651 15.04813868 50.27795445 15.05071303 41.81414509 15.04024076 C36.75697215 15.03399992 31.69995473 15.03318645 26.64279175 15.04638672 C21.88863495 15.05792893 17.13490513 15.04994935 12.38079453 15.02680969 C10.6344664 15.02151388 8.88810242 15.02305127 7.14178848 15.03186035 C4.7607048 15.04276542 2.3809957 15.02911485 0 15.00914001 C-0.69377275 15.0180629 -1.38754549 15.02698579 -2.10234165 15.03617907 C-5.41982937 14.9820649 -7.11894565 14.68690767 -9.79249573 12.65695953 C-11.36352539 10.50120544 -11.36352539 10.50120544 -11.86352539 7.50120544 C-10.72332624 0.66001056 -6.13864415 -0.08498708 0 0 Z " fill="#000000" transform="translate(203.363525390625,305.49879455566406)"/>
    <path d="M0 0 C0.74380197 -0.0055344 1.48760393 -0.01106879 2.25394535 -0.0167709 C4.74767985 -0.03039025 7.24041569 -0.01540197 9.73413086 -0.00050354 C11.52131577 -0.00428626 13.30849776 -0.00978592 15.09567261 -0.01687622 C19.95104571 -0.03085421 24.80606539 -0.01964462 29.66141891 -0.00316501 C34.73912596 0.01067068 39.81681217 0.00422711 44.89453125 0.0007019 C53.42217718 -0.00200139 61.94968246 0.01148566 70.47729492 0.03465271 C80.34076783 0.06126318 90.20400552 0.06300998 100.06750202 0.05126435 C109.55023017 0.0404905 119.03287311 0.04667055 128.51559448 0.06081963 C132.5538026 0.06658284 136.59194843 0.06649411 140.63015747 0.06175423 C145.38425892 0.05698694 150.13810234 0.06707583 154.89215469 0.08870888 C156.63848119 0.0942803 158.38483246 0.09473879 160.13116074 0.08975601 C162.51204461 0.0838139 164.89213675 0.09628699 167.27294922 0.11352539 C168.31360834 0.10451032 168.31360834 0.10451032 169.37529087 0.09531313 C172.36399775 0.13475876 174.41531095 0.38198264 177.06544495 1.8105917 C178.63647461 3.50120544 178.63647461 3.50120544 179.13647461 6.93870544 C178.63647461 10.50120544 178.63647461 10.50120544 177.06544495 12.69211578 C173.84296627 15.09220802 171.13769603 15.05884606 167.27294922 15.00914001 C166.52914725 15.01537998 165.78534529 15.02161994 165.01900387 15.02804899 C162.52528676 15.04401089 160.03254281 15.03136288 157.53881836 15.01878357 C155.75163197 15.02420329 153.96445005 15.0313251 152.17727661 15.0400238 C147.32191668 15.05827797 142.46689626 15.051181 137.6115303 15.03850746 C132.53381678 15.02839064 127.45613261 15.03776947 122.37841797 15.04405212 C113.8507769 15.05133237 105.32327434 15.04173092 96.7956543 15.02268982 C86.93213902 15.00092037 77.06895446 15.00797148 67.2054472 15.02999544 C58.741651 15.04813868 50.27795445 15.05071303 41.81414509 15.04024076 C36.75697215 15.03399992 31.69995473 15.03318645 26.64279175 15.04638672 C21.88863495 15.05792893 17.13490513 15.04994935 12.38079453 15.02680969 C10.6344664 15.02151388 8.88810242 15.02305127 7.14178848 15.03186035 C4.7607048 15.04276542 2.3809957 15.02911485 0 15.00914001 C-0.69377275 15.0180629 -1.38754549 15.02698579 -2.10234165 15.03617907 C-5.41982937 14.9820649 -7.11894565 14.68690767 -9.79249573 12.65695953 C-11.36352539 10.50120544 -11.36352539 10.50120544 -11.86352539 7.50120544 C-10.72332624 0.66001056 -6.13864415 -0.08498708 0 0 Z " fill="#000000" transform="translate(203.363525390625,243.49879455566406)"/>
    <path d="M0 0 C0.74773666 -0.00382555 1.49547332 -0.00765109 2.26586866 -0.01159257 C4.77859437 -0.02193507 7.2910921 -0.01792811 9.80383301 -0.01396179 C11.60234286 -0.01830754 13.40085085 -0.02349023 15.19935608 -0.02944946 C20.08974055 -0.04286448 24.98004787 -0.04341543 29.87044716 -0.04088616 C33.94874494 -0.03981829 38.02702699 -0.04469501 42.10532141 -0.04949158 C51.72342443 -0.06059511 61.34148839 -0.06101921 70.95959473 -0.05497742 C80.89291992 -0.04893374 90.82610361 -0.06125672 100.75940466 -0.08254749 C109.27919594 -0.10013934 117.79894208 -0.10616873 126.31875086 -0.10290974 C131.41110231 -0.10109311 136.5033528 -0.10377089 141.59568787 -0.11762428 C146.38257658 -0.13015903 151.16924394 -0.12830001 155.95612907 -0.11521339 C157.71578482 -0.11283865 159.47545593 -0.11561423 161.23509407 -0.12383652 C163.63168041 -0.1342301 166.02751376 -0.12626369 168.42407227 -0.11352539 C169.47596025 -0.12458682 169.47596025 -0.12458682 170.54909849 -0.13587171 C173.36383622 -0.1042554 175.27331318 -0.03764811 177.63628387 1.56924152 C179.51572478 4.52437314 179.18638444 6.8809647 178.71203613 10.26069641 C175.96433153 13.17019395 174.28301503 14.17600366 170.29963684 14.76685429 C168.983358 14.76966121 167.66707916 14.77246813 166.31091309 14.77536011 C165.20723751 14.7857784 165.20723751 14.7857784 164.08126545 14.79640716 C161.62063931 14.81467486 159.16097756 14.80441411 156.70031738 14.79414368 C154.93430866 14.80120225 153.168306 14.80994701 151.40231323 14.82025146 C146.60893897 14.84276088 141.81589464 14.83980231 137.02248764 14.83092999 C133.02130673 14.82582189 129.02018792 14.83311114 125.0190134 14.84040207 C115.58102051 14.85740563 106.14318928 14.85383016 96.7052002 14.83711243 C86.96603138 14.82018441 77.22731055 14.83603397 67.48819065 14.86833531 C59.12711296 14.89501632 50.76617485 14.90231142 42.40505886 14.89382023 C37.41098017 14.88888742 32.41717115 14.89112596 27.42312622 14.91160774 C22.72797985 14.92994187 18.03347898 14.92403409 13.33836746 14.89940834 C11.6150304 14.8943935 9.89164434 14.89790767 8.16834641 14.91055679 C5.81587255 14.9264586 3.46553193 14.91156695 1.11315918 14.8888855 C-0.86125908 14.88800603 -0.86125908 14.88800603 -2.87556458 14.8871088 C-7.16719914 14.09929564 -8.68073233 12.70454491 -11.28796387 9.26069641 C-11.28796387 5.57319641 -11.28796387 5.57319641 -10.28796387 2.26069641 C-6.69945677 -0.13164165 -4.14235198 -0.02232456 0 0 Z " fill="#040404" transform="translate(203.2879638671875,186.7393035888672)"/>
    <path d="M0 0 C0.73971841 -0.00623996 1.47943683 -0.01247993 2.24157095 -0.01890898 C4.72147035 -0.03487023 7.20039108 -0.02222315 9.68029785 -0.00964355 C11.45763218 -0.01506331 13.23496202 -0.02218514 15.01228333 -0.03088379 C19.84078523 -0.04913761 24.66894572 -0.04204113 29.49745369 -0.02936745 C34.54714004 -0.01925044 39.59679689 -0.02862951 44.64648438 -0.03491211 C53.12704728 -0.0421923 61.60747092 -0.03259104 70.0880127 -0.0135498 C79.89699702 0.00821963 89.7056488 0.00116853 99.51462507 -0.02085543 C107.93171269 -0.03899882 116.34870011 -0.04157294 124.76580095 -0.03110075 C129.79502852 -0.02485998 134.8240997 -0.02404621 139.85331726 -0.0372467 C144.58121011 -0.04878914 149.30867361 -0.04080893 154.03652 -0.01766968 C155.77317275 -0.01237398 157.50986154 -0.01391105 159.24650002 -0.02272034 C161.61444917 -0.03362589 163.98101626 -0.01997431 166.34887695 0 C167.38369965 -0.01338433 167.38369965 -0.01338433 168.43942785 -0.02703905 C171.74857898 0.02723478 173.43525685 0.3261534 176.10103607 2.35218048 C177.67443848 4.50793457 177.67443848 4.50793457 178.17443848 7.50793457 C177.54734323 11.27050603 176.69210722 12.21446685 173.67443848 14.50793457 C171.09019057 14.90119707 168.93073681 15.04926275 166.34887695 15.01586914 C165.60915854 15.0221091 164.86944013 15.02834907 164.107306 15.03477812 C161.6274066 15.05073937 159.14848588 15.03809229 156.6685791 15.0255127 C154.89124477 15.03093245 153.11391493 15.03805428 151.33659363 15.04675293 C146.50809172 15.06500675 141.67993123 15.05791027 136.85142326 15.04523659 C131.80173691 15.03511958 126.75208006 15.04449865 121.70239258 15.05078125 C113.22182967 15.05806144 104.74140603 15.04846018 96.26086426 15.02941895 C86.45187993 15.00764951 76.64322815 15.01470061 66.83425188 15.03672457 C58.41716427 15.05486796 50.00017685 15.05744208 41.583076 15.04696989 C36.55384844 15.04072913 31.52477725 15.03991535 26.49555969 15.05311584 C21.76766685 15.06465828 17.04020334 15.05667807 12.31235695 15.03353882 C10.5757042 15.02824312 8.83901541 15.02978019 7.10237694 15.03858948 C4.73442778 15.04949504 2.3678607 15.03584345 0 15.01586914 C-1.0348227 15.02925347 -1.0348227 15.02925347 -2.0905509 15.04290819 C-5.39970202 14.98863436 -7.08637989 14.68971574 -9.75215912 12.66368866 C-11.32556152 10.50793457 -11.32556152 10.50793457 -11.82556152 7.50793457 C-10.68893363 0.6881672 -6.12583098 -0.0792311 0 0 Z " fill="#000000" transform="translate(204.3255615234375,367.4920654296875)"/>
    <path d="M0 0 C1.10345229 -0.00935994 1.10345229 -0.00935994 2.22919655 -0.01890898 C4.69527826 -0.03486957 7.16037572 -0.02222343 9.62646484 -0.00964355 C11.39394711 -0.01506334 13.16142487 -0.02218518 14.92889404 -0.03088379 C19.73053793 -0.04913726 24.53183849 -0.04204128 29.33348846 -0.02936745 C34.35514765 -0.01925026 39.37677717 -0.02862956 44.3984375 -0.03491211 C52.83192226 -0.04219225 61.26526697 -0.03259118 69.69873047 -0.0135498 C79.45318386 0.00821962 89.20730284 0.00116851 98.96174812 -0.02085543 C107.33212716 -0.03899897 115.70240543 -0.04157287 124.07279778 -0.03110075 C129.07407997 -0.02486007 134.07520492 -0.02404597 139.07647705 -0.0372467 C143.77810595 -0.04878937 148.47930312 -0.04080853 153.18088531 -0.01766968 C154.90786268 -0.0123741 156.63487628 -0.01391085 158.36183929 -0.02272034 C160.71665395 -0.03362639 163.07007897 -0.01997377 165.42480469 0 C166.74330414 0.0015081 168.06180359 0.0030162 169.42025757 0.00457001 C172.71240234 0.50793457 172.71240234 0.50793457 175.1366272 2.35218048 C176.71240234 4.50793457 176.71240234 4.50793457 177.21240234 7.50793457 C176.58548656 11.26942929 175.72783835 12.21392066 172.71240234 14.50793457 C169.42025757 15.01129913 169.42025757 15.01129913 165.42480469 15.01586914 C164.3213524 15.02522908 164.3213524 15.02522908 163.19560814 15.03477812 C160.72952643 15.05073871 158.26442896 15.03809257 155.79833984 15.0255127 C154.03085757 15.03093248 152.26337982 15.03805432 150.49591064 15.04675293 C145.69426676 15.0650064 140.8929662 15.05791042 136.09131622 15.04523659 C131.06965703 15.0351194 126.04802751 15.0444987 121.02636719 15.05078125 C112.59288243 15.05806139 104.15953772 15.04846033 95.72607422 15.02941895 C85.97162083 15.00764952 76.21750185 15.01470063 66.46305656 15.03672457 C58.09267753 15.05486811 49.72239925 15.05744201 41.35200691 15.04696989 C36.35072472 15.04072921 31.34959977 15.03991511 26.34832764 15.05311584 C21.64669873 15.06465851 16.94550156 15.05667767 12.24391937 15.03353882 C10.51694201 15.02824324 8.7899284 15.02977999 7.06296539 15.03858948 C4.70815074 15.04949553 2.35472572 15.03584291 0 15.01586914 C-1.31849945 15.01436104 -2.6369989 15.01285294 -3.99545288 15.01129913 C-7.28759766 14.50793457 -7.28759766 14.50793457 -9.71182251 12.66368866 C-11.28759766 10.50793457 -11.28759766 10.50793457 -11.78759766 7.50793457 C-10.64259147 0.63789744 -6.26692253 0.00716812 0 0 Z " fill="#000000" transform="translate(204.28759765625,429.4920654296875)"/>
    <path d="M0 0 C2.18994561 1.6920389 4.12561887 3.50062633 6.0703125 5.46875 C8.11165588 7.41439739 8.11165588 7.41439739 12 7 C13.74892264 5.47184236 13.74892264 5.47184236 15.3125 3.5 C18.03551528 0.60716226 18.64558913 0.05906848 22.75 -0.625 C26 0 26 0 27.9375 1.0625 C29.73584842 4.34184124 29.60523685 6.30805523 29 10 C27.32771864 12.26714762 25.53040166 14.21983962 23.53125 16.203125 C21.67569575 17.98709057 21.67569575 17.98709057 22 21 C23.5517056 22.87155148 23.5517056 22.87155148 25.5 24.75 C28.21672653 27.7361994 28.94923546 28.6903363 29.625 32.8125 C29 36 29 36 27.9375 37.9375 C24.61175268 39.76129692 22.74510037 39.67534597 19 39 C16.01291962 36.60302466 13.49271547 33.90061436 11 31 C8.02107051 32.33694875 6.000902 33.83920423 3.6875 36.125 C0.9275518 38.54663197 0.05979822 38.99003363 -3.75 39.625 C-7 39 -7 39 -8.9375 37.375 C-10.31392978 34.29827462 -10.36941411 32.35378205 -10 29 C-8.03125 26.4453125 -8.03125 26.4453125 -5.5 24.125 C-4.6646875 23.34382813 -3.829375 22.56265625 -2.96875 21.7578125 C-2.3190625 21.17773438 -1.669375 20.59765625 -1 20 C-1.39832031 19.54109375 -1.79664063 19.0821875 -2.20703125 18.609375 C-3.29893726 17.34478312 -4.3833241 16.07366813 -5.4609375 14.796875 C-6.57724652 13.49357005 -7.74349643 12.23251981 -8.9375 11 C-10.63583331 7.80313729 -9.88136656 5.39955673 -9 2 C-5.38751859 -0.40832094 -4.26125032 -0.72360855 0 0 Z " fill="#040404" transform="translate(136,416)"/>
    <path d="M0 0 C2.18994561 1.6920389 4.12561887 3.50062633 6.0703125 5.46875 C8.11165588 7.41439739 8.11165588 7.41439739 12 7 C13.74892264 5.47184236 13.74892264 5.47184236 15.3125 3.5 C18.03551528 0.60716226 18.64558913 0.05906848 22.75 -0.625 C26 0 26 0 27.9375 1.0625 C29.73584842 4.34184124 29.60523685 6.30805523 29 10 C27.32771864 12.26714762 25.53040166 14.21983962 23.53125 16.203125 C21.67569575 17.98709057 21.67569575 17.98709057 22 21 C23.5517056 22.87155148 23.5517056 22.87155148 25.5 24.75 C28.21672653 27.7361994 28.94923546 28.6903363 29.625 32.8125 C29 36 29 36 27.9375 37.9375 C24.61175268 39.76129692 22.74510037 39.67534597 19 39 C16.01291962 36.60302466 13.49271547 33.90061436 11 31 C8.02107051 32.33694875 6.000902 33.83920423 3.6875 36.125 C0.9275518 38.54663197 0.05979822 38.99003363 -3.75 39.625 C-7 39 -7 39 -8.9375 37.375 C-10.31392978 34.29827462 -10.36941411 32.35378205 -10 29 C-8.03125 26.4453125 -8.03125 26.4453125 -5.5 24.125 C-4.6646875 23.34382813 -3.829375 22.56265625 -2.96875 21.7578125 C-2.3190625 21.17773438 -1.669375 20.59765625 -1 20 C-1.39832031 19.54109375 -1.79664063 19.0821875 -2.20703125 18.609375 C-3.29893726 17.34478312 -4.3833241 16.07366813 -5.4609375 14.796875 C-6.57724652 13.49357005 -7.74349643 12.23251981 -8.9375 11 C-10.63583331 7.80313729 -9.88136656 5.39955673 -9 2 C-5.38751859 -0.40832094 -4.26125032 -0.72360855 0 0 Z " fill="#040404" transform="translate(136,291)"/>
    <path d="M0 0 C0 15.51 0 31.02 0 47 C-15.51 47 -31.02 47 -47 47 C-40.24828558 39.12299985 -40.24828558 39.12299985 -36.6628418 35.53344727 C-35.8656926 34.7331459 -35.0685434 33.93284454 -34.24723816 33.10829163 C-33.40639175 32.26946945 -32.56554535 31.43064728 -31.69921875 30.56640625 C-30.82223831 29.68846909 -29.94525787 28.81053192 -29.04170227 27.9059906 C-27.1998471 26.0634582 -25.3567416 24.2221749 -23.51245117 22.38208008 C-21.61837191 20.49160203 -19.72569881 18.59985874 -17.83569336 16.70532227 C-15.10535829 13.96884577 -12.37162543 11.23581297 -9.63671875 8.50390625 C-8.78575119 7.65091446 -7.93478363 6.79792267 -7.05802917 5.91908264 C-6.27664078 5.14084641 -5.49525238 4.36261017 -4.69018555 3.56079102 C-3.99990768 2.87130875 -3.30962982 2.18182648 -2.59843445 1.47145081 C-1 0 -1 0 0 0 Z " fill="#000000ff" transform="translate(141,40)"/>
    <path d="M0 0 C4.310625 0.0825 8.62125 0.165 13.0625 0.25 C13.0625 9.82 13.0625 19.39 13.0625 29.25 C8.751875 29.3325 4.44125 29.415 0 29.5 C-2.01879272 29.55462402 -2.01879272 29.55462402 -4.07836914 29.61035156 C-10.91063539 29.67361801 -15.48686842 29.54466898 -20.9375 25.25 C-23.83358718 22.1361619 -24.84180695 18.91985137 -25.4375 14.75 C-24.60455177 8.91936239 -22.7846685 5.70542349 -18.15625 2.05859375 C-12.56944594 -0.97715823 -6.16586129 -0.16683444 0 0 Z " fill="#DDE1E6" transform="translate(238.9375,107.75)"/>
    <path d="M0 0 C6.4659375 -0.12375 6.4659375 -0.12375 13.0625 -0.25 C15.08129272 -0.30462402 15.08129272 -0.30462402 17.14086914 -0.36035156 C23.99164031 -0.42378937 28.49505186 -0.23036498 34 4 C37.05825627 7.25556313 37.23029379 10.18775492 37.375 14.5 C37.23029379 18.81224508 37.05825627 21.74443687 34 25 C27.43422494 30.0455743 21.08434882 29.46705332 13.0625 29.25 C8.751875 29.1675 4.44125 29.085 0 29 C0 19.43 0 9.86 0 0 Z " fill="#DDE1E6" transform="translate(266,108)"/>
    <path d="M0 0 C1.05840088 0.01027222 1.05840088 0.01027222 2.13818359 0.02075195 C10.78745161 0.28625604 17.13318595 3.24558791 23.1875 9.4375 C28.1875 16.9375 28.1875 16.9375 28.1875 21.4375 C10.0375 21.4375 -8.1125 21.4375 -26.8125 21.4375 C-25.20716674 13.41083369 -20.32317515 8.18486729 -13.8125 3.4375 C-9.18991875 0.68134446 -5.30541446 -0.07889327 0 0 Z " fill="#DDE1E6" transform="translate(298.8125,50.5625)"/>
    <path d="M0 0 C4.66170436 1.5929442 4.66170436 1.5929442 6.109375 4.0625 C6.45616647 7.46480548 6.53963839 9.39203537 4.66796875 12.30859375 C3.96800781 13.03175781 3.26804688 13.75492188 2.546875 14.5 C1.73992187 15.34304687 0.93296875 16.18609375 0.1015625 17.0546875 C-0.89497711 18.05814272 -1.89246833 19.06065329 -2.890625 20.0625 C-4.17989188 21.3774038 -5.46894059 22.69252155 -6.7578125 24.0078125 C-9.40637076 26.69263059 -12.05855132 29.37356973 -14.73046875 32.03515625 C-15.29113037 32.59468994 -15.85179199 33.15422363 -16.42944336 33.73071289 C-18.64526572 35.75031373 -20.00393303 36.08060665 -23.01953125 36.5625 C-28.59955295 35.84177066 -31.02000601 33.00141797 -34.828125 29.0625 C-35.51197266 28.41410156 -36.19582031 27.76570313 -36.90039062 27.09765625 C-40.16516237 23.80353091 -42.32762956 21.46545004 -42.4296875 16.69140625 C-41.890625 13.0625 -41.890625 13.0625 -40.328125 11 C-36.6429572 9.58262777 -34.67391332 9.90827644 -30.890625 11.0625 C-28.2937911 13.17937432 -26.07123512 15.52397818 -23.890625 18.0625 C-20.61940932 16.64703114 -18.63318822 14.96142837 -16.24609375 12.33203125 C-15.22999023 11.25211914 -15.22999023 11.25211914 -14.19335938 10.15039062 C-12.78274673 8.63297259 -11.38422861 7.1042212 -9.99804688 5.56445312 C-4.77706325 0.07673997 -4.77706325 0.07673997 0 0 Z " fill="#060606" transform="translate(163.890625,168.9375)"/>
    <path d="M0 0 C2.4375 1.5625 2.4375 1.5625 4 4 C3.85069299 9.87186941 1.97379014 12.92250582 -2.1015625 16.8984375 C-2.87359512 17.67908066 -2.87359512 17.67908066 -3.66122437 18.47549438 C-4.74839587 19.56673069 -5.84310928 20.65049946 -6.94482422 21.72705078 C-8.62058571 23.37067038 -10.26190031 25.04386861 -11.90234375 26.72265625 C-12.96683167 27.783179 -14.0331795 28.84183882 -15.1015625 29.8984375 C-15.58726715 30.39628754 -16.0729718 30.89413757 -16.57339478 31.40707397 C-20.18916186 34.87939885 -23.0222108 35.83712299 -28 36 C-30.1875 34.8125 -30.1875 34.8125 -32 33 C-32.99193359 32.03513672 -32.99193359 32.03513672 -34.00390625 31.05078125 C-34.66261719 30.37402344 -35.32132813 29.69726562 -36 29 C-36.66902344 28.35417969 -37.33804688 27.70835937 -38.02734375 27.04296875 C-43.90286057 21.33566713 -43.90286057 21.33566713 -44.25 16.5625 C-44 13 -44 13 -42.9375 11.0625 C-39.61175268 9.23870308 -37.74510037 9.32465403 -34 10 C-31.01291962 12.39697534 -28.49271547 15.09938564 -26 18 C-20.94593833 13.84443819 -16.29814817 9.37752009 -11.7331543 4.69604492 C-7.7637606 0.65349565 -5.76665517 -0.57666552 0 0 Z " fill="#040404" transform="translate(166,354)"/>
    <path d="M0 0 C2.4375 1.5625 2.4375 1.5625 4 4 C3.85069299 9.87186941 1.97379014 12.92250582 -2.1015625 16.8984375 C-2.87359512 17.67908066 -2.87359512 17.67908066 -3.66122437 18.47549438 C-4.74839587 19.56673069 -5.84310928 20.65049946 -6.94482422 21.72705078 C-8.62058571 23.37067038 -10.26190031 25.04386861 -11.90234375 26.72265625 C-12.96683167 27.783179 -14.0331795 28.84183882 -15.1015625 29.8984375 C-15.58726715 30.39628754 -16.0729718 30.89413757 -16.57339478 31.40707397 C-20.18916186 34.87939885 -23.0222108 35.83712299 -28 36 C-30.1875 34.8125 -30.1875 34.8125 -32 33 C-32.99193359 32.03513672 -32.99193359 32.03513672 -34.00390625 31.05078125 C-34.66261719 30.37402344 -35.32132813 29.69726562 -36 29 C-36.66902344 28.35417969 -37.33804688 27.70835937 -38.02734375 27.04296875 C-43.90286057 21.33566713 -43.90286057 21.33566713 -44.25 16.5625 C-44 13 -44 13 -42.9375 11.0625 C-39.61175268 9.23870308 -37.74510037 9.32465403 -34 10 C-31.01291962 12.39697534 -28.49271547 15.09938564 -26 18 C-20.94593833 13.84443819 -16.29814817 9.37752009 -11.7331543 4.69604492 C-7.7637606 0.65349565 -5.76665517 -0.57666552 0 0 Z " fill="#040404" transform="translate(166,229)"/>
    <path d="M0 0 C18.15 0 36.3 0 55 0 C53.55726366 7.21368168 50.17400367 12.74705226 44.125 17.0625 C43.09375 17.701875 42.0625 18.34125 41 19 C38.25187754 17.83733281 36.51605498 16.57104873 34.25 14.5625 C27.8022772 9.10811825 20.61035701 8.51879542 12.5 8.3125 C11.5821875 8.27833984 10.664375 8.24417969 9.71875 8.20898438 C7.4792891 8.12733736 5.2401785 8.05792462 3 8 C0 2.25 0 2.25 0 0 Z " fill="#DDE1E6" transform="translate(272,86)"/>
</svg>