<svg width="50" height="50" viewBox="0 0 50 50" fill="none" xmlns="http://www.w3.org/2000/svg">
<path d="M25 4.6875C13.7812 4.6875 4.6875 13.7812 4.6875 25C4.6875 36.2188 13.7812 45.3125 25 45.3125C36.2188 45.3125 45.3125 36.2188 45.3125 25C45.3125 13.7812 36.2188 4.6875 25 4.6875ZM25 42.1875C15.5273 42.1875 7.8125 34.4775 7.8125 25C7.80445 22.6884 8.26667 20.3992 9.17105 18.2718C10.0754 16.1444 11.4031 14.2232 13.0732 12.625L27.2461 22.7539L25.3906 25.6836L13.1836 16.7969C11.9141 19.043 10.5762 21.2891 10.5762 25C10.5762 32.9531 17.0469 39.4238 25 39.4238C32.9531 39.4238 39.4238 32.9531 39.4238 25C39.4238 17.5127 33.6895 11.3398 26.3818 10.6445V16.0156H23.6182V7.80176C24.0322 7.80859 24.4912 7.8125 25 7.8125C34.4775 7.8125 42.1875 15.5273 42.1875 25C42.1875 34.4727 34.4775 42.1875 25 42.1875Z" fill="#FFC002"/>
</svg>
