<!--<svg width="24" height="24" viewBox="0 0 24 24" fill="#457589" xmlns="http://www.w3.org/2000/svg">-->
<!--<path  d="M13.6916 2.57795C13.6916 2.57798 13.6917 2.578 13.6917 2.57803L20.6912 5.76942C20.6914 5.76951 20.6916 5.76959 20.6918 5.76968C21.1866 5.99443 21.7491 6.43202 21.7504 7.13254C21.7517 7.83381 21.1899 8.27289 20.6965 8.49818L20.6962 8.49832L13.7587 11.6624L13.7586 11.6624C13.2371 11.9001 12.5996 12.0007 12.0042 12.0007C11.4087 12.0007 10.7712 11.9001 10.2498 11.6624L10.2497 11.6624L3.31304 8.49871C3.31285 8.49863 3.31266 8.49854 3.31247 8.49845C2.8185 8.27379 2.25464 7.83581 2.25464 7.13414C2.25464 6.4324 2.81861 5.99442 3.3126 5.76977C3.31275 5.7697 3.31289 5.76963 3.31304 5.76957L10.3082 2.57803C10.3083 2.57797 10.3084 2.57791 10.3086 2.57785C10.3086 2.57784 10.3086 2.57783 10.3086 2.57782C10.8134 2.34722 11.4273 2.25 12 2.25C12.5727 2.25 13.1867 2.34726 13.6916 2.57795ZM12 3.75C11.5722 3.75 11.1858 3.82616 10.9317 3.94228L3.93589 7.13414L10.872 10.2976C10.872 10.2976 10.8721 10.2976 10.8721 10.2976C11.1424 10.4208 11.5522 10.5007 12.0042 10.5007C12.4561 10.5007 12.866 10.4208 13.1362 10.2976M13.1363 10.2976L20.0706 7.135L13.0682 3.94228C12.8141 3.82616 12.4277 3.75 12 3.75" fill="#457589"/>-->
<!--<path  d="M15.9619 14.0734C16.1416 13.7001 16.5897 13.5432 16.963 13.7228L20.7034 15.5228C21.1958 15.7486 21.7537 16.1858 21.7537 16.8839C21.7537 17.5855 21.1901 18.0237 20.6959 18.2485C20.6957 18.2485 20.6955 18.2486 20.6953 18.2487L13.7587 21.4124L13.7582 21.4126C13.2369 21.65 12.5995 21.7504 12.0042 21.7504C11.4088 21.7504 10.7715 21.65 10.2501 21.4126L10.2497 21.4124L3.31304 18.2487C3.31285 18.2486 3.31266 18.2486 3.31247 18.2485C2.81825 18.0237 2.25464 17.5855 2.25464 16.8839C2.25464 16.182 2.81869 15.7438 3.31304 15.5191L3.31634 15.5176L7.1929 13.7781C7.57081 13.6085 8.01464 13.7774 8.18422 14.1553C8.3538 14.5332 8.18491 14.977 7.807 15.1466L3.9354 16.8839L10.8717 20.0474C10.8718 20.0475 10.8719 20.0475 10.8719 20.0476C10.872 20.0476 10.8721 20.0476 10.8721 20.0476C11.1425 20.1706 11.5523 20.2504 12.0042 20.2504C12.456 20.2504 12.8658 20.1706 13.1362 20.0476C13.1363 20.0476 13.1363 20.0476 13.1364 20.0476C13.1365 20.0475 13.1366 20.0475 13.1367 20.0474L20.073 16.8839C20.0685 16.8819 20.0641 16.8798 20.0597 16.8777L16.3125 15.0744C15.9393 14.8948 15.7823 14.4466 15.9619 14.0734Z" fill="#457589"/>-->
<!--<path  d="M15.8156 9.27831C15.9851 8.90035 16.4289 8.73132 16.8068 8.90079L20.6918 10.6427L20.6954 10.6442C21.1891 10.8687 21.7548 11.3074 21.7532 12.0108C21.7515 12.7129 21.1856 13.1499 20.6904 13.374C20.69 13.3742 20.6896 13.3743 20.6892 13.3745L13.754 16.5371L13.7539 16.5371C13.2325 16.7748 12.595 16.8754 11.9995 16.8754C11.4041 16.8754 10.7666 16.7748 10.2451 16.5371L10.2451 16.5371L3.3084 13.3739C3.30827 13.3738 3.30814 13.3737 3.30802 13.3737C2.81376 13.1489 2.25 12.7108 2.25 12.0091C2.25 11.3072 2.81405 10.869 3.3084 10.6442L3.31166 10.6428L7.19291 8.9009C7.57081 8.7313 8.01465 8.90016 8.18425 9.27806C8.35385 9.65596 8.18499 10.0998 7.80709 10.2694L3.93076 12.0091L10.8674 15.1723C10.8674 15.1723 10.8674 15.1723 10.8674 15.1723C11.1377 15.2955 11.5476 15.3754 11.9995 15.3754C12.4515 15.3754 12.8614 15.2955 13.1316 15.1723C13.1317 15.1723 13.1317 15.1723 13.1317 15.1723L20.0691 12.0087L20.0706 12.008L16.1932 10.2695C15.8152 10.1 15.6462 9.65627 15.8156 9.27831Z" fill="#457589"/>-->
<!--</svg>-->


<svg width="24" height="24" viewBox="0 0 24 24" fill="#457589" xmlns="http://www.w3.org/2000/svg">
<path d="M13.6916 2.57795L20.6918 5.76968C21.1866 5.99443 21.7491 6.43202 21.7504 7.13254C21.7517 7.83381 21.1899 8.27289 20.6965 8.49818L13.7587 11.6624C13.2371 11.9001 12.5996 12.0007 12.0042 12.0007C11.4087 12.0007 10.7712 11.9001 10.2498 11.6624L3.31304 8.49871C2.8185 8.27379 2.25464 7.83581 2.25464 7.13414C2.25464 6.4324 2.81861 5.99442 3.31304 5.76957L10.3086 2.57782C10.8134 2.34722 11.4273 2.25 12 2.25C12.5727 2.25 13.1867 2.34726 13.6916 2.57795Z" />
<path d="M15.9619 14.0734C16.1416 13.7001 16.5897 13.5432 16.963 13.7228L20.7034 15.5228C21.1958 15.7486 21.7537 16.1858 21.7537 16.8839C21.7537 17.5855 21.1901 18.0237 20.6959 18.2485L13.7587 21.4124C13.2369 21.65 12.5995 21.7504 12.0042 21.7504C11.4088 21.7504 10.7715 21.65 10.2501 21.4126L3.31304 18.2487C2.81825 18.0237 2.25464 17.5855 2.25464 16.8839C2.25464 16.182 2.81869 15.7438 3.31304 15.5191L7.1929 13.7781C7.57081 13.6085 8.01464 13.7774 8.18422 14.0734Z" />
<path d="M15.8156 9.27831C15.9851 8.90035 16.4289 8.73132 16.8068 8.90079L20.6918 10.6427C21.1891 10.8687 21.7548 11.3074 21.7532 12.0108C21.7515 12.7129 21.1856 13.1499 20.6904 13.374L13.754 16.5371C13.2325 16.7748 12.595 16.8754 11.9995 16.8754C11.4041 16.8754 10.7666 16.7748 10.2451 16.5371L3.3084 13.3739C2.81376 13.1489 2.25 12.7108 2.25 12.0091C2.25 11.3072 2.81405 10.869 3.3084 10.6442L7.19291 8.9009C7.57081 8.7313 8.01465 8.90016 8.18425 9.27831Z" />
</svg>
