<svg width="36" height="35" viewBox="0 0 36 35" fill="#FFEB3B" xmlns="http://www.w3.org/2000/svg">
    <path d="M16.9967 1.6908C17.2961 0.769535 18.5994 0.769536 18.8988 1.6908L22.2139 11.8924C22.3478 12.3043 22.7317 12.5833 23.1649 12.5833L33.8916 12.5837C34.8603 12.5837 35.263 13.8233 34.4794 14.3927L25.8015 20.698C25.4511 20.9527 25.3044 21.404 25.4383 21.816L28.7526 32.0178C29.0519 32.9391 27.9975 33.7052 27.2138 33.1358L18.5355 26.8312C18.185 26.5765 17.7105 26.5765 17.36 26.8312L8.68169 33.1358C7.89799 33.7052 6.84357 32.9391 7.14287 32.0178L10.4572 21.816C10.5911 21.404 10.4444 20.9527 10.094 20.698L1.41613 14.3927C0.632472 13.8233 1.03523 12.5837 2.00391 12.5837L12.7306 12.5833C13.1638 12.5833 13.5477 12.3043 13.6816 11.8924L16.9967 1.6908Z"
        stroke="#FFEB3B" stroke-width="2"/>
</svg>