<svg width="36" height="36" viewBox="0 0 36 36" fill="none" xmlns="http://www.w3.org/2000/svg">
<path fill-rule="evenodd" clip-rule="evenodd" d="M18.3456 3.37553C26.263 3.55935 32.625 10.0385 32.625 18.0002C32.625 26.0845 26.0901 32.6404 17.9979 32.6252C9.89878 32.6099 3.28534 25.9542 3.37505 17.8475C3.41165 14.3022 4.7358 10.8911 7.10083 8.24972C7.51529 7.78683 8.22652 7.74757 8.6894 8.16202C9.15229 8.57648 9.19156 9.28771 8.7771 9.7506C6.7761 11.9854 5.6558 14.8715 5.62492 17.8711L5.62491 17.872C5.54893 24.7206 11.1459 30.3623 18.0021 30.3752C24.8443 30.388 30.375 24.846 30.375 18.0002C30.375 11.5442 25.4311 6.24035 19.125 5.67195V10.6877C19.125 11.309 18.6213 11.8127 18 11.8127C17.3787 11.8127 16.875 11.309 16.875 10.6877V4.80853C16.8747 4.61702 16.9129 4.4274 16.9872 4.2509C17.0618 4.07377 17.1713 3.91347 17.3092 3.77957C17.4471 3.64567 17.6105 3.54091 17.7898 3.47152C17.9669 3.40297 18.1558 3.37036 18.3456 3.37553Z" fill="#353535"/>
<path d="M16.4096 19.5912L10.8549 11.6459C10.778 11.5358 10.7424 11.4022 10.7542 11.2685C10.766 11.1347 10.8245 11.0094 10.9194 10.9145C11.0143 10.8196 11.1396 10.7611 11.2734 10.7493C11.4071 10.7375 11.5407 10.7731 11.6508 10.85L19.5961 16.4047C20.0835 16.7557 20.413 17.2844 20.5135 17.8765C20.6141 18.4686 20.4774 19.0765 20.1332 19.5687C19.789 20.0608 19.2649 20.3977 18.6742 20.5064C18.0836 20.6151 17.4738 20.4869 16.977 20.1495C16.7573 19.9973 16.5653 19.8084 16.4096 19.5912Z" fill="#353535"/>
</svg>
