<svg width="24" height="24" viewBox="0 0 24 24" fill="none" xmlns="http://www.w3.org/2000/svg">
<g clip-path="url(#clip0_119_833)">
<path d="M14 3H10C9.44772 3 9 3.44772 9 4V5C9 5.55228 9.44772 6 10 6H14C14.5523 6 15 5.55228 15 5V4C15 3.44772 14.5523 3 14 3Z" stroke="#21272A" stroke-width="2" stroke-linecap="round" stroke-linejoin="round"/>
<path d="M10 6V6.98C10 7.857 9.366 8.606 8.5 8.75C7.634 8.894 7 9.643 7 10.52V19C7 19.5304 7.21071 20.0391 7.58579 20.4142C7.96086 20.7893 8.46957 21 9 21H15C15.5304 21 16.0391 20.7893 16.4142 20.4142C16.7893 20.0391 17 19.5304 17 19V10.52C17 9.643 16.366 8.894 15.5 8.75C15.081 8.68018 14.7003 8.46401 14.4256 8.13991C14.1509 7.81582 14.0001 7.40482 14 6.98V6" stroke="#21272A" stroke-width="2" stroke-linecap="round" stroke-linejoin="round"/>
<path d="M7 12H17" stroke="#21272A" stroke-width="2" stroke-linecap="round" stroke-linejoin="round"/>
<path d="M7 18H17" stroke="#21272A" stroke-width="2" stroke-linecap="round" stroke-linejoin="round"/>
<path d="M11 15H13" stroke="#21272A" stroke-width="2" stroke-linecap="round" stroke-linejoin="round"/>
</g>
<defs>
<clipPath id="clip0_119_833">
<rect width="24" height="24" fill="white"/>
</clipPath>
</defs>
</svg>
