<svg width="24" height="24" viewBox="0 0 24 24" fill="none" xmlns="http://www.w3.org/2000/svg">
<path fill-rule="evenodd" clip-rule="evenodd" d="M4.51339 3.97107C4.37111 2.60649 5.49547 1.5 6.82545 1.5H17.1745C18.5026 1.5 19.6314 2.60492 19.4865 3.97179C19.1665 7.04551 17.9354 8.59558 16.7888 9.68476C16.5941 9.86967 16.3967 10.0461 16.2175 10.2063C16.1475 10.2689 16.0802 10.329 16.017 10.3861C15.782 10.5986 15.5905 10.7809 15.4347 10.9605C15.1409 11.2995 15 11.5977 15 12C15 12.4061 15.141 12.7089 15.4323 13.0513C15.5865 13.2326 15.7763 13.4167 16.0088 13.6306C16.0753 13.6917 16.1465 13.7564 16.2208 13.8239C16.3947 13.9819 16.5858 14.1555 16.7735 14.3358C17.9096 15.4276 19.1398 16.974 19.4863 20.0218L19.4863 20.022C19.6424 21.3978 18.4973 22.5 17.1745 22.5H6.82545C5.50289 22.5 4.35745 21.398 4.51415 20.0219C4.51417 20.0218 4.51418 20.0217 4.51419 20.0216C4.86063 16.9728 6.09164 15.4377 7.22808 14.3519C7.44384 14.1458 7.63528 13.973 7.8079 13.8172C8.10804 13.5463 8.35126 13.3268 8.56643 13.0725C8.85585 12.7306 8.99999 12.4215 8.99999 12C8.99999 11.5822 8.85584 11.2777 8.56401 10.9393C8.4089 10.7595 8.21795 10.5775 7.98357 10.3661C7.91705 10.3061 7.84579 10.2426 7.77138 10.1763C7.59563 10.0198 7.40237 9.84769 7.21282 9.6687C6.06559 8.5854 4.83349 7.04649 4.51341 3.97129M6.82545 3C6.29926 3 5.96399 3.41964 6.00531 3.81559L6.00533 3.81581C6.28013 6.45639 7.29332 7.68166 8.24266 8.57809C8.41593 8.74171 8.58139 8.88903 8.74952 9.03872C8.82819 9.10877 8.90745 9.17934 8.98836 9.25234C9.23144 9.47163 9.48053 9.70527 9.69994 9.95969C10.1572 10.4899 10.5 11.1288 10.5 12C10.5 12.8675 10.1633 13.5077 9.71137 14.0416C9.43337 14.3701 9.06425 14.7046 8.71382 15.0222C8.55696 15.1644 8.40384 15.3031 8.26432 15.4364C7.31649 16.3421 6.30223 17.5712 6.00457 20.1912L6.00453 20.1915C5.96081 20.575 6.29186 21 6.82545 21H17.1745C17.708 21 18.0394 20.575 17.9959 20.1911C17.6978 17.57 16.6825 16.3287 15.7341 15.4174C15.562 15.2519 15.3976 15.1027 15.2311 14.9514C15.1527 14.8802 15.0737 14.8086 14.9933 14.7345C14.7524 14.5129 14.5063 14.2778 14.2898 14.0233C13.8398 13.4943 13.5 12.8596 13.5 12C13.5 11.1367 13.846 10.5032 14.3013 9.97805C14.5201 9.72563 14.7686 9.49268 15.011 9.27347C15.0869 9.20489 15.1615 9.13821 15.2356 9.07194C15.4083 8.91763 15.5784 8.76557 15.7557 8.59719C16.7055 7.69498 17.7197 6.45754 17.9946 3.81581L17.9948 3.81401C18.0367 3.42075 17.7024 3 17.1745 3H6.82545Z" fill="white"/>
<path d="M16.0922 20.25H7.92796C7.19671 20.25 6.99046 19.4062 7.50328 18.8831C8.74453 17.625 11.25 16.7241 11.25 15.2812V10.5C11.25 9.56953 9.46875 8.85938 8.36671 7.35C8.18484 7.10109 8.20312 6.75 8.66531 6.75H15.3558C15.75 6.75 15.8353 7.09828 15.6558 7.34766C14.5697 8.85938 12.75 9.56484 12.75 10.5V15.2812C12.75 16.7123 15.3614 17.4844 16.5187 18.8845C16.9852 19.4489 16.822 20.25 16.0922 20.25Z" fill="white"/>
</svg>
